<svg xmlns="http://www.w3.org/2000/svg" viewBox="0 0 185.31 113.24"><defs><style>.ec358195-8646-4caf-af72-3021aea6434e{fill:#1d1d1b;}</style></defs><g id="be34f318-e29d-4745-a026-3a03a80a78fa" data-name="Layer 2"><g id="ef23e116-1cda-483e-8e8b-a2628a3c4964" data-name="Layer 1"><path class="ec358195-8646-4caf-af72-3021aea6434e" d="M180.46,111h0a.13.13,0,0,0,0-.07l-.05,0A.31.31,0,0,1,180.46,111Z"/><path class="ec358195-8646-4caf-af72-3021aea6434e" d="M172,111.35a.25.25,0,0,1,0,.07.21.21,0,0,0,0-.06Z"/><path class="ec358195-8646-4caf-af72-3021aea6434e" d="M176.5,107.08s0,0,0,0h0S176.49,107.09,176.5,107.08Z"/><path class="ec358195-8646-4caf-af72-3021aea6434e" d="M174.28,103.2h.05a.1.1,0,0,0,0-.08l-.05,0A.49.49,0,0,1,174.28,103.2Z"/><path class="ec358195-8646-4caf-af72-3021aea6434e" d="M185.15,108c-.11.05-.26,0-.21-.1s.1-.31-.11-.47,0-.18.15-.23,0,0,0,0a1.84,1.84,0,0,0-.12-.45.34.34,0,0,0-.31-.08c-.55.27-.66.23-.67-.32,0-.18-.12-.25-.29-.27s-.13.08-.16.13c-.14.23-.26.47-.39.7.1.39.37.81-.17,1.08-.24-.3,0-.66-.14-1,.29-.31-.18-.42-.2-.65.51,0,.51,0,.74-.39-.07-.31-.61-.26-.54-.67l-.33.07c-.1-.52-.62-.52-.91-.76-.41.11-.77.24-1.15.31s-.84.5-1.34.55-.77.44-1.23.51c-.06,0-.16.06-.18.11-.17.52-.69.67-1.08,1,0,0,.06,0,.07,0s.1.19-.07.2c0,0,0-.1,0-.2-.16-.12-.13-.3-.18-.44a.62.62,0,0,0-.33-.43c-.26-.15-.34-.46-.51-.69a1.76,1.76,0,0,0-.33-.29c-.26-.2-.25-.3,0-.47l.19-.1c-.19-.28-.51-.35-.77-.49-.46-.25-.62-.33-.77-.55a.56.56,0,0,0,.43-.42s0,0,0,0a.47.47,0,0,1,0-.17s.06,0,.11.1c0-.07,0,0,.05,0h0a2,2,0,0,0,.56.41l.08.67c.22-.24.33-.48.51-.54s.32-.31.43-.49a4.68,4.68,0,0,0-.45-.62.41.41,0,0,1-.13-.27c-.05-.46-.11-.5-.5-.33-.1,0-.15.17-.24.2a.65.65,0,0,1-.31,0c-.26,0-.27-.41-.43-.42s-.38,0-.53-.11-.18-.21-.16-.25c.25-.41-.13-.61-.32-.92a5.18,5.18,0,0,1,.53-.14c.15,0,.18-.14.21-.24s0-.14-.1-.18-.27-.11-.37.07-.25.12-.38,0-.05-.14-.09-.2-.17-.25-.34-.21l-.4.11-.26-.37,0-.06.34-.61c-.14-.27-.09-.6-.34-.84s-.2-.3-.32-.43a.92.92,0,0,0-.29-.16c-.1-.19,0-.31.1-.43s0-.26-.11-.37-.13-.28-.23-.32-.29,0-.39,0c0,.21.17.33-.08.44s-.26.14-.19.54h0l-2.6-3.72.44-.18a2,2,0,0,0,.27-.91c0-.11.06-.22,0-.3a1.13,1.13,0,0,1-.35-1c0-.25-.17-.55-.08-.75s.05-.51.12-.74.06-.26,0-.29c-.39-.14-.08-.39-.12-.57s0-.31.16-.2c.46.34.75,0,1.09-.19.05.37-.13.55-.48.64-.05,0-.07.19-.1.29a.58.58,0,0,0,.18,0c.27-.09.17.16.25.25h.09l1.12-.31.38.49c-.35.76-.35.76-.68,1-.07.17.07.33.1.49a4,4,0,0,0,.14.46l-.11.19c-.13.28-.13.29.09.45a1.89,1.89,0,0,1,.27.2c.05.06.05.15.09.27a5.05,5.05,0,0,0,1.13-.41,9.21,9.21,0,0,1,1.17-.43l.12.33a.56.56,0,0,0,.39-.52,2.69,2.69,0,0,1,.37-1.13c.2-.32.37-.67.55-1a1.11,1.11,0,0,0,.05-.24.58.58,0,0,0-.62.3c-.1.21-.22.4-.32.6-.05,0-.1,0-.13,0a1.52,1.52,0,0,1-.68-.42c.17-.16.42-.25.49-.5s-.08-.35-.23-.32-.3.08-.45.12c-.3.06-.34,0-.46-.33a1.94,1.94,0,0,1-.05-.2c.11,0,.26-.06.31-.13.2-.32.37-.66.54-1,.26-.08.39.13.56.18s.16,0,.19-.09c.25-.44.49-.87.77-1.39l.65-.06c-.2-.32,0-.57-.07-.83s.18-.47.31-.69c.35,0,.54-.53,1-.36.12,0,.29,0,.43,0a.63.63,0,0,0,.78-.23c.07-.1.28-.1.44-.14.17.26-.16.38-.14.6a.35.35,0,0,0,0,.11,1,1,0,0,0,.52.2c.12,0,.14-.17.07-.51l.3-.11c.25-.1.2.13.28.27.23-.25.64-.29.76-.67a.2.2,0,0,0-.12-.28c-.08.22-.45.09-.48.37a.68.68,0,0,1-.28,0,2.1,2.1,0,0,1-.39-.21c-.06,0-.13.14-.17.13a2.7,2.7,0,0,0-.63-.28c-.21,0-.42,0-.64-.1s-.36,0-.54,0-.14-.12-.13-.15.16-.34.22-.52a2.9,2.9,0,0,0,0-.51l.6,0-.17-.55-1-.55a.77.77,0,0,1-.75-.15c-.2-.12-.41-.22-.62-.34l-.62.18c-.33-.18-.71-.37-1.07-.59a1.05,1.05,0,0,0-.75-.15.74.74,0,0,1-.48-.08c-.1-.09-.15-.23-.27-.34s-.13-.32-.31-.45-.12-.34-.33-.42c0-.33-.21-.49-.55-.34l-.87-.41a2.57,2.57,0,0,0-.47-1c-.14-.21-.32-.36-.56-.3s-.4,0-.5-.3-.24-.24-.41-.05-.35.13-.53.24a3,3,0,0,0-.81-.42,1.32,1.32,0,0,1-.75-.17,1.69,1.69,0,0,0-1,.44c-.24,0-.31.19-.39.36s-.23.14-.38.06-.28-.13-.3-.31-.14-.09-.24-.09c-.25,0-.28,0-.35-.18s-.14-.35-.4-.3a.69.69,0,0,1-.32,0,1.81,1.81,0,0,0-1.19-.07,10.88,10.88,0,0,1-1.12.3c-.22,0-.28.23-.49.33l-.58-.32-.73-.36c-.28.22-.29-.25-.44-.2s-.44-.08-.69-.19l-.4.48a.22.22,0,0,1-.11,0l-1-.57-.48-.69h-18l35.11-31.91H153.46v1.16c1,0,5,.83,5,4.81a8.18,8.18,0,0,1-2.66,5.55l-1,.92L135,73.29l-1.48,1.3h-7.66l.91-.9c.13-.13.07-.48-.1-.51a.46.46,0,0,0-.4.1c-.12.13-.12.45-.23.48s-.19.3-.35.41-.16.25-.06.42H99.06c-11.87-14.53-7.4-30.42,10.33-30.42,10.7,0,18.76,7.41,24.94,14.79h.9V47c.05.09.11.18.16.29.17.43.62.44,1,.24,0-.07,0-.11.05-.16,0-.34-.12-.76.48-.71.13,0,.15-.14.06-.21-.33-.21-.21-.54-.22-.69a2.6,2.6,0,0,0-1.44-1.2l-.12.18v-2h-1.82a.9.9,0,0,1-.28-.13c-.4-.31-1.06-.36-1.11-1.07,0-.15-.26-.31-.44-.39a.4.4,0,0,0-.39.14c-.07.11,0,.3,0,.45a.26.26,0,0,1-.23.32.37.37,0,0,1-.29-.06c-.15-.13-.39-.29-.39-.44,0-.31-.22-.44-.38-.63a1,1,0,0,1-.08-1.37c.18-.32-.15-.29-.18-.5a4.28,4.28,0,0,1,.43-.38.33.33,0,0,1,.29,0,3.13,3.13,0,0,1,.5.31c-.1-1.18.73-1.47,1.5-1.83.11.43,0,.93.57,1.19h.9a.81.81,0,0,0,.1-.09c.49-.51.53-.55.07-1-.29-.26-.26-.64-.52-.89s-.09-.59-.1-.89c0-.67,0-.7-.66-.39a1.09,1.09,0,0,1-.58.09.9.9,0,0,0-.81.31c-.09.11-.43-.05-.44-.24,0-.39-.25-.39-.51-.37-.1,0-.25,0-.3,0-.47.51-1,.23-1.58.24-.41-.49-1-.2-1.45-.26-.06,0-.14.1-.21.16a.71.71,0,0,1,.16,1.07l-.34-.3c-.19.62-.19.62.35.95.16.1.19.46,0,.53l-.66.31a1.22,1.22,0,0,1-1.14-.06c.57-.49.24-1.08.34-1.57l-.59-.6c-.15-.35.12-.79-.21-1.11-.26.24-.52.47-.34.92h0c.06.05.1.12,0,.09.11.13.05.19,0,.19a.62.62,0,0,1-.18-.14.19.19,0,0,1,0-.08.63.63,0,0,0-.67.14c-.19.19-.34.12-.52,0s-.26-.61-.55-.84c-.07.19-.13.37-.19.55,0,0-.07.08-.11.08h-1.37c0,.39.48.48.58.82-.35.37-.52,0-.75-.19-.21.2-.41.54-.74.17s-.58-.17-.87-.17-.43-.16-.42-.47c0-.05-.25-.15-.38-.15a.26.26,0,0,0-.23.32,4,4,0,0,1,0,.49,2.08,2.08,0,0,0-.53.2c-.17.13-.3.28-.55.22l-.64-.61h-1.25c-.19.3-.23.69-.56.87a.49.49,0,0,1-.41,0,.78.78,0,0,1-.28-1.16,1.64,1.64,0,0,0,.19-1.22c0-.17.15-.35.25-.54-.07-.07-.22-.17-.25-.3a.48.48,0,0,1,.11-.4c.29-.26.17-.56.16-.85-.51-.32-.17-.86-.33-1.27l-.55-.55c0-.18.45-.29.08-.55s0-.49-.11-.68L112.33,28h-.63l-.78.77a3.65,3.65,0,0,1,0,.47c0,.49.21,1-.3,1.43,0,.38-.16.81.22,1.15.18.15.12.36-.06.53l-.47.47c0,.55.13,1.08-.41,1.33a.7.7,0,0,1-.84-.07l.3-.33c-.34-.36-.54-.06-.75.15-.35-.66-.7-1.31-1.62-1.29-.15,0-.3-.25-.45-.37l.36-.41c-.29-.06-.32-.45-.65-.41-.5.07-.15-.54-.56-.62-.17.48,0,1-.12,1.48-.11,0-.24.1-.29.07a6.61,6.61,0,0,1-.58-.47c.07-.65-.35-1.1-.61-1.62,0-.08,0-.29.14-.38.26-.26-.06-.31-.15-.51.26-.18.39-.54.84-.45.21,0,.38,0,.41-.31.05-.45.53-.59.76-.92.33.25.43-.41.77-.2v.61c.33.31.54.75,1.11.87.19-.39.72-.53.79-1.08-.09-.1-.17-.26-.29-.32-.36-.19-.26-.64-.55-.87s-.09-.49-.1-.73c0-.69,0-.69-.76-.5a1.68,1.68,0,0,1-.45,0,.86.86,0,0,0-.82.29c-.11.13-.45,0-.46-.2,0-.37-.19-.39-.48-.41s-.45.19-.66.32a.32.32,0,0,1-.42-.27c0-.2-.08-.41.07-.59a2.53,2.53,0,0,0,1.24.23c.09,0,.23-.11.23-.16-.06-.48.48-.6.59-1,0,0-.08-.1-.11-.1h-1.25c-.35.19-.48.85-1.11.52l.32-.37c-.5-.32-.22-.84-.33-1.27-.21-.2-.6-.1-.74-.43-.43,0-.58-.05-.21-.45.19-.21,0-.5-.31-.48s-.74-.16-1,.24c-.34,0-.69,0-1,0,0,0-.07-.16-.11-.25s-.22-.05-.26-.12a5.08,5.08,0,0,1-.23-.66c-.07.31-.06.47-.14.58a.56.56,0,0,1-.36.19c-.16,0-.22-.11-.27-.29s-.1-.32-.44,0a1,1,0,0,1-.49-1c0-.16-.1-.28-.3-.18a1.29,1.29,0,0,1,0,.36c0,.07-.11.11-.17.17a.94.94,0,0,1-.13-.24.62.62,0,0,1,.06-.26.24.24,0,0,1,.1-.1c.15-.05.2,0,.15.07,0-.12,0-.21,0-.22a2.83,2.83,0,0,1-.53-.23,7,7,0,0,1-.55-.54c-.5.4-.5.4-.86.07l-.22-.21a4.19,4.19,0,0,0,.28-.5c0-.07-.06-.18-.11-.26s-.07,0-.1,0-.16.33-.32.15-.71-.17-.87-.54-.56-.21-.75-.43c.1-.17.27-.33.27-.5s-.17-.32-.27-.48l.33-.33c.15-.15.32-.28.27-.52s-.29-.23-.49-.22h-.46c-.21,0-.41-.29-.29-.42.39-.37.3-.83.3-1.28,0,0-.13-.09-.2-.11s-.09.06-.1.1c0,.24.1.52-.11.73-.38,0-.87.26-.85-.45-.48-.36-.74-1-1.41-1.12-.17,0-.34-.25-.43-.43s.14-.57-.14-.7-.48-.12-.62-.35a1.3,1.3,0,0,1-.18-.4c-.2-.86-.32-.93-1.25-.74,0,.2,0,.41,0,.61s-.12.11-.18.16l-.12-.26c0-.09-.07-.18-.11-.3h-2c-.22.25-.52.4-.46.78-.48.3-.29.64,0,1-.48.27-1-.07-1.53.22a2.87,2.87,0,0,0,.11.74c.24.61.39,1.13.09,1.56s-.1.79-.17,1.17c.5.33.25.84.29,1.28a8.57,8.57,0,0,1,0,.87c.2.41.58.45.89.6.23.61-.27,1.35.33,1.89-.06.06-.12.18-.18.18-.24,0-.53.11-.72-.14a.53.53,0,0,0-.55-.16,2.22,2.22,0,0,0-.39.11c0,.4.12.77-.12,1.09h-.79V19.76l-.5-.5c-.16.39-.16.39.14.77l-.28.32c.17.17.47.42.27.61a1.23,1.23,0,0,0-.28,1,1,1,0,0,1-.23.85c-.22.2-.1.34.23.52s.94.25,1.1.66a5.26,5.26,0,0,0,1.18,1.45.81.81,0,0,0,1-.27c.18-.23.15-.57.44-.76a5,5,0,0,0,.61-.6c-.11-.16-.27-.28-.28-.41a13.08,13.08,0,0,1,0-1.4c0-.08.1-.16.15-.23h.93c.18.23.52.36.48.74,0,.06.14.18.2.18.34,0,.73.17,1.08-.2-.47-.09-.34-.45-.36-.75s.1-.3.27-.28.34.13.34.19c0,.35.15.41.46.45s.3.26.49.44c-.42.43-.85.85-1.27,1.27A1.28,1.28,0,0,1,88,25.2c-.09.07-.07.28-.16.39s-.34.49-.52.5c-.63,0-.63.57-.84.93-.3.52-.27.71.07,1.06l.52.52.47-.46c-.15-.15-.3-.29-.44-.44s-.27-.38.08-.75c.06-.07.14-.13.4-.37-.24.65.42.86.27,1.38-.06.25.17.37.32.49s.43.21.63.34.36.53.76.45c0,0,.11.15.09.2s-.2.15-.2.23c0,.36-.15.59-.55.49s-.4.23-.74.3c0-.48,0-.94,0-1.39,0-.05-.15-.13-.24-.14s-.26,0-.27.06a1.5,1.5,0,0,1-.57.86c-.22-.18-.4-.56-.74-.18a.68.68,0,0,1-.55.19c-.14,0-.39.09-.39.14,0,.57-.55.71-.8,1.1-.25,0-.51,0-.76,0a.8.8,0,0,0-1,.71c0,.08-.11.14-.17.21s-.1-.07-.1-.11c0-.38-.15-.56-.55-.51a1.06,1.06,0,0,1-.4-.09c-.08-.47.16-1-.32-1.3l.29-.33a.69.69,0,0,0-.85,0,.74.74,0,0,0-.4.77c0,.12-.08.26-.12.39h-1c-.27.13,0,.53-.37.61a2.81,2.81,0,0,0-.39.14c.1.37-.34.49-.35.81s.1.41-.11.57-.18.49,0,.76.06.5-.39.53h-.15A1.89,1.89,0,0,0,77.4,36a.33.33,0,0,1,0,.45c-.23.32-.09.51.34.54h.38l.55-.67a.83.83,0,0,1,.13.88,7,7,0,0,1-.54.55.81.81,0,0,1,.2,1c-.52-.19-.94-.65-1.56-.56l-.67-.59a2,2,0,0,0-.48.34c-.06.12-.16.22-.18.21-.19-.11-.06-.2,0-.27a.15.15,0,0,1,.13,0s0,0,0,0c0-.33.1-.63-.4-.67-.33,0-.28-.33-.1-.59l.33.28c.18-.06.23-.34.48-.29a.83.83,0,0,0-.3-.8l.54-.53c.14-.21-.48-.42,0-.51s.48-.34.85-.53l-.89-.63c.31-.06.45-.1.6-.12s.5,0,.49.38a.24.24,0,0,0,.31.25,2.79,2.79,0,0,0-.49-1.86c-.37.29-.37.29-1.07.3V33l-1.45,1.45c-.58-.41-1.12-.34-1.35.22.16.45-.29.75-.29,1.11a1.22,1.22,0,0,1-.49.9h-.63l-.46.47c0,.43,0,.89,0,1.35,0,.25.18.35.3.5s.3,0,.44-.09.46-.12.59,0a1.5,1.5,0,0,0,1,.31c.06,0,.16.22.19.34s.12.26.3.27.33-.08.32-.23c0-.39.3-.49.5-.69,0,0,.11.08.11.11,0,.27-.37,1.1-.52,1.1-.45,0-.56.43-.84.62a2.29,2.29,0,0,1-1-.06c-.22-.37.14-.83-.23-1.18l-.3.63c-.37.06-.74-.12-1,.12-.16.32.07.47.25.64-.06.17-.27.24-.18.49h0c.06,0,.1.11,0,.08.1.13,0,.2,0,.19a.62.62,0,0,1-.18-.14.19.19,0,0,1,0-.08,1,1,0,0,1-.67-.25.31.31,0,0,0-.51,0c-.17.18-.33.38-.49.55-.47-.1-1,.16-1.28-.33-.25.19-.11.46-.15.69a.36.36,0,0,1-.31.31c-.06.11-.16.22-.18.2-.19-.11-.06-.2,0-.27a.13.13,0,0,1,.12,0c0-.13,0-.25-.1-.26-.29-.07-.6-.16-.83.12s-.28,0-.29-.07-.1-.51.13-.73.2-.3.16-.38a7.09,7.09,0,0,1-.39-.78c0-.16-.67-.1-.87.1a.84.84,0,0,1-.4,1L64.4,41l-1.11,1.19.58.61a1.82,1.82,0,0,0,0,.33c.08.31-.26.42-.3.65a6.77,6.77,0,0,0,0,.78.91.91,0,0,1-.64.56c-.21,0-.42,0-.62,0s-.31,0-.2.28h1.35c.19-.23.5-.38.44-.76,0,0,.09-.11.1-.1s.19.1.19.15a.7.7,0,0,0,.64.73c.3,0,.38.33.6.45l-.18.23c-.07.07-.15.14-.22.22-.27.29-.26.37.07.86-.23.18-.56.15-.76.43a7,7,0,0,1-.76.78c-.05.35.1.72-.1,1-.62.17-.64.21-.4.65a5.62,5.62,0,0,0,.34.64c.13.2.38.36.45.59s.11.4.37.35a1.81,1.81,0,0,0,.47-.26l.11.11c.34.23.48.71.93.77.66.09.06.77.48,1,.05,0,.06.14.1.23l-.87.14,0,1c-.36-.36-.62-.59-.83-.85a1.7,1.7,0,0,1-.2-.55l-.35.32-.37-.32c-.28.58.21,1.3-.4,1.74.25.26.47.56.9.47.27,0,.36.13.34.37s0,.37,0,.43c-.28.23-.14.34,0,.58s.14.47.35.63c-.17.27-.46.12-.69.17a.72.72,0,0,0-.24.16c-.32.25-.28,0-.3-.21s-.11-.29-.29-.26c-.35,0-.7.43-.64.71s.3.2.48.24a.23.23,0,0,1,.11.11s0,.1-.06.1a4.76,4.76,0,0,1-.75.07,1.45,1.45,0,0,1-.41-.1V57.13c-.18-.14-.27-.4-.62-.42,0,.52,0,1,0,1.54a2.94,2.94,0,0,1-.63,2.06,7.32,7.32,0,0,0,1.19.68.9.9,0,0,1,.69.69c0,.18.26.32.29.5.13.68.59.75,1.14.7l.3,0c.44-.17.37-.69.66-1s.55-.41.63-.67-.32-.45-.23-.78a1.42,1.42,0,0,0,0-.46c0-.5.26-.73.69-.84a4.65,4.65,0,0,1,.79.73c.27.39.71.06,1,.32l.11.11c.08.12.16.12.22,0s.07-.23,0-.29c-.19-.24-.43-.44-.6-.69a.41.41,0,0,1,.12-.39.39.39,0,0,1,.39,0c.12.14.14.48.24.5.4.07.69.36,1.13.49l-1.2,1.19c-.14.36,0,.62-.2.85a4.21,4.21,0,0,0-.34.63c-.16.25-.54.36-.46.75a4.1,4.1,0,0,0-.62.34,1.16,1.16,0,0,0-.34.48,2.38,2.38,0,0,0-.26,1.42c.56.53.56.53,1.08.15.57.46-.44.65-.18,1.06a1.24,1.24,0,0,1-.4.16c-.74,0-.74,0-1,.61l-.32-.28a2.7,2.7,0,0,1-1,1.23c-.47,0-.94,0-1.4,0-.09,0-.17.1-.25.15s0,.31,0,.46-.07.26-.11.26-.21-.13-.2-.29-.1-.26-.28-.28-.41.08-.64-.13A2.68,2.68,0,0,0,61,67a.41.41,0,0,0-.4-.08c-.28.21-.56.45-.47.89,0,.08,0,.18-.11.32H59l-1,1c.09.39-.44.55-.37.94a.14.14,0,0,1-.07.12c-.14,0-.32.09-.42,0a3.51,3.51,0,0,1-.45-.42.68.68,0,0,0-.21-.1l-.2.58a.85.85,0,0,0-.82-.32c-.06.25.23.3.29.49-.11.1-.21.23-.33.32s-.65.17-.66.64c0,.17-.21.33-.33.49-.47-.52-.84-.53-1.27-.13-.17.16-.52,0-.49-.11.07-.37-.37-.48-.34-.81,0-.17-.09-.26-.28-.27s-.33.07-.32.22a.69.69,0,0,1-.51.69c-.53.09-.7.55-1.06.81a4.15,4.15,0,0,1,.55.56,2,2,0,0,1,.19.54c.45-.35,1.17-.44,1.4-.21V74a1,1,0,0,1-.76.07c-.15,0-.18-.39-.45-.14s-.56.2-.59.35a.65.65,0,0,1-.12.31H46.69a.47.47,0,0,0-.13-.51l-.76-.78c0-.66-.78-.79-.93-1.32s-.76-.82-1-1.29c-.55.38-.55.38-1.14-.17a6.51,6.51,0,0,1,0-.88.72.72,0,0,0-.47-.77l-.49.38c.07.07.1.13.14.14s.24,0,.3,0a.63.63,0,0,1,.19.36c0,.16-.1.26-.29.26s-.39.06-.16.32c.05,0,.09.2.07.21-.43.34-.23.61.08.87-.2.22-.55.4-.16.78l.94-.94c.14.15.26.25.36.37s.55.53.63.65.47.16.65.32.44.44.67.66l-.17.22a2.08,2.08,0,0,0-.32.34.65.65,0,0,0-.09.41c0,.16.3.19.52.08s.13-.31.33-.15l.11.4H40.45a.78.78,0,0,0-.41-.47l-.32.28-.61-.59c-.36,0-.75-.12-1,0a7.77,7.77,0,0,1-1.3.63.17.17,0,0,0-.08.12H34l-.32-.15a.77.77,0,0,0,0,.15H15.82c.15-.27,0-.61.06-.92,0-.15-.35-.28-.48-.17a5,5,0,0,0-.4.39l.75.7H0V77.2H46.57l.15.17-.31.33.22.2c.24.23.24.23.56-.05l.33.3h1.21c.15,0,.25-.36.15-.5-.37-.54-.81-.58-1.38-.13-.06-.14-.11-.24-.15-.32h4.7s0,.06,0,.09c.05.38.38.19.6.24a.83.83,0,0,0,.81-.33h26.7a27.79,27.79,0,0,0,7.56,14.65.78.78,0,0,0-.76.53c-.08.18-.18.34-.26.51a.68.68,0,0,0,.07.83l.32-.29.34.29c.13-.24.46-.3.37-.61-.12-.07-.22-.16-.2-.18.11-.19.19-.06.27,0a.15.15,0,0,1,0,.13h0c.36,0,.43.31.65.42l-.29.49c-.11.21-.21.43-.31.64a2,2,0,0,0,.65.3c.28,0,.61.12.87-.1.07-.34-.06-.74.33-1a.22.22,0,0,1,0-.18,29.68,29.68,0,0,0,9.87,5.55l-.13.16a2.67,2.67,0,0,0-.36.47c0,.06,0,.19,0,.28s.14.1.22,0,.38-.13.52-.24.13-.33.23-.48a25,25,0,0,0,7.32,1.14c12.26,0,16.38-8.19,17-11.65h.41c1.95,5,3,7.82,4.43,11.08h5.93V76.35l1.6-1.63L154.34,100h.07l7.35,10.56.31,0a2.1,2.1,0,0,0,0-.39c0-.25,0-.26.21-.16l.21.11a.59.59,0,0,1,.54-.19c-.09.41-.09.41-.54.19,0,.14-.19.23-.15.41a2.51,2.51,0,0,1,0,.55l.33-.07c.39.22.79.47,1.22.66.26.12.47.43.83.3s.43.25.75.16.57.18.75.41a1.86,1.86,0,0,1,.3.45c.09.32.3,0,.44.11s.31.11.36-.08c.08-.34.49-.32.63-.58,0,0,.15,0,.21,0a.84.84,0,0,0,.64.11c.15,0,.33.22.52.25a2.08,2.08,0,0,0,1.08,0c.06-.22.26-.24.43-.31-.15-.21,0-.43,0-.64a.33.33,0,0,0-.3-.09.4.4,0,0,1-.42-.07s0-.07-.05-.15c.24-.07.48-.15.73-.2s.35.22.48-.06.21-.32.09-.52a.26.26,0,0,1,0-.09c.21,0,.31-.1.23-.36,0-.08.42-.19.57-.1a.35.35,0,0,1,.11.17c-.3.28,0,.7-.27,1,.15.11.29-.06.43,0a1.26,1.26,0,0,1,.39.22s0,.15,0,.21c-.08.22-.31.21-.48.24s-.09-.15-.15-.23a1.1,1.1,0,0,1-.25-.36c0-.08,0-.12-.06-.12-.32.07-.36.37-.45.59a.52.52,0,0,0,.2.58c.26-.41.26-.41.57-.11a.65.65,0,0,1-.57.11.56.56,0,0,0,.37.72.33.33,0,0,0,.29,0c.06,0,.06-.19.07-.3s0-.12,0-.19c.18-.08.29.07.42.14s.22.06.29,0,.15-.27-.06-.36-.21-.19-.08-.22.41.09.62,0a1.48,1.48,0,0,1,0,.21c0,.07-.06.16,0,.2a5.48,5.48,0,0,0,.48.58s.13,0,.2,0a2,2,0,0,0-.14-.43.82.82,0,0,0-.26-.22c.06,0,.1-.11.15-.12s.27-.16.43,0c.06-.05.13-.14.17-.13a1.15,1.15,0,0,1,.84.67.33.33,0,0,0,.29,0,.36.36,0,0,0,.06-.3c-.16-.32-.17-.32.12-.4,0,0,.08,0,.11,0l.82.44c0,.19.08.39.32.41,0,0,.13,0,.17-.11.17-.23-.06-.31-.19-.41s.15-.34.15-.54l.81-.18a.82.82,0,0,0,.94.56l.64-.18c.27,0,.33-.26.55-.34s.4-.41.26-.74c0,0,0,0,0-.11s-.05,0-.06,0a.47.47,0,0,1,0-.17s.06,0,.1.1c0-.07.05,0,.06,0s0,0,0,0a.84.84,0,0,1,.36.55c.32-.06.27-.27.19-.51a.61.61,0,0,1,.57-.12c.09-.15.13-.33.36-.36s.09-.16,0-.2c-.22-.14-.45-.25-.68-.38-.28.37-.69.11-1,.18-.2,0-.66-.35-.86-.6.19,0,.35-.18.55-.06a2.43,2.43,0,0,1,.5.29c.22.19.45-.05.65.08l.2.11c.09-.22.22-.39.48-.39s.55,0,.83.06a.63.63,0,0,0,.59-.2.62.62,0,0,1-.18-.65s-.06,0-.11,0a.17.17,0,0,1,0-.1c0-.17.12-.32.17-.07.07-.2.1-.18.1-.16s-.05.15-.07.22a.67.67,0,0,0,.34.39.53.53,0,0,1,.06-.1l.87-.24c.18-.34.61-.25.85-.47.05,0,.05-.14.05-.21S185.25,107.91,185.15,108ZM173.44,81.05a.44.44,0,0,1,.2.08.52.52,0,0,1,.1.18.76.76,0,0,1-.21,0c-.06,0-.11-.09-.17-.13l0-.11A.45.45,0,0,1,173.44,81.05Zm-.08,2.54a.21.21,0,0,1,.09.18.3.3,0,0,1-.09.19c-.37-.08-.8.13-1.11-.24,0,0,0-.07,0-.1A2,2,0,0,1,173.36,83.59Zm-1,1.68a2.82,2.82,0,0,1-.07-.31c.5-.22,1,0,1.55-.06a3.05,3.05,0,0,0,.07.89c0,.13-.13.36-.23.3-.28-.15-.41-.07-.52.18a.63.63,0,0,1-.23.2c-.2-.2-.44.06-.64-.08s-.14-.12-.13-.16.12-.26.17-.4,0-.19-.12-.27S172,85.38,172.36,85.27Zm-.67,2.06a.71.71,0,0,1-.1-.14l.11,0,.09.14S171.71,87.34,171.69,87.33Zm-1.84-5.11.09.14s-.08,0-.1,0a.71.71,0,0,1-.1-.14Zm-.41.79.11.31c.2-.09.45,0,.58-.3a.59.59,0,0,0,0-.6,1.38,1.38,0,0,0,1,0,3.48,3.48,0,0,1,.18.63c0,.25.26.35.38.61l-.61.07-.27.47s-.07,0-.1,0c-.43-.1-.74-.5-1.26-.4-.2,0-.21-.29-.26-.46S169.27,83.05,169.44,83Zm-1.13,1.51a.71.71,0,0,1,.1.14s-.08,0-.1,0a.71.71,0,0,1-.1-.14S168.29,84.51,168.31,84.52ZM167.23,84a.26.26,0,0,1,.34.18s0,.06,0,.07a.26.26,0,0,1-.34-.18S167.22,84,167.23,84Zm-81-73.69s.07.07.1.1a1.36,1.36,0,0,1-.21.1s-.06-.07-.1-.1A2,2,0,0,1,86.2,10.28ZM86,12.09h0A.23.23,0,0,1,86,12c0-.07.13-.12.21-.16s.09,0,.14,0l-.13.19c.24-.12.3-.09.37-.06-.11.06-.21.17-.31.17l-.17,0a2,2,0,0,1-.63.56C85.33,12.13,85.33,12.13,86,12.09Zm.1,6.49s-.06-.06-.1-.1a2,2,0,0,1,.21-.1s.07.07.1.1A.81.81,0,0,1,86.09,18.58Zm.51-2.66c0,.07-.11.22-.15.21-.49-.06-.48.25-.46.57a.86.86,0,0,1,0,.16c0,.21-.35.36-.47.2-.27-.34-.73-.51-.8-1,0-.24-.39-.44-.59-.66.59-.26.59-.26.63-.94.2-.25.47-.09.84-.16.26.28.54.64.87,1S86.6,15.68,86.6,15.92Zm.48-4.14a1.36,1.36,0,0,1-.1-.21s.07-.06.1-.1a1,1,0,0,1,.1.21S87.12,11.75,87.08,11.78Zm1.92,14-.21-.11s.08-.11.11-.1a1,1,0,0,1,.21.1ZM71.75,38.55a1.81,1.81,0,0,1,0-1.15c.64.07.45.8,1.1,1.15Zm1.93-2.15a1,1,0,0,1-.09-.21s.06-.07.09-.1l.11.2Zm-9,13.66-.2-.11s.08-.1.1-.1a1.36,1.36,0,0,1,.21.1ZM66,56.22s-.07.07-.15.15a5.19,5.19,0,0,1-.37-.45s.06-.2.09-.19a.63.63,0,0,1,.4.09C66.05,55.9,66,56.09,66,56.22ZM68.7,45.43a2,2,0,0,1,.1.21s-.07.07-.1.1a.75.75,0,0,1-.1-.2S68.66,45.47,68.7,45.43Zm-1.56-.93a1.36,1.36,0,0,1,.1.21s-.07.07-.1.1a2,2,0,0,1-.1-.21S67.11,44.53,67.14,44.5Zm-1-1.19a.81.81,0,0,1,.21.1l-.11.11-.2-.11S66.13,43.3,66.15,43.31Zm0,.62a1.36,1.36,0,0,1,.21.1l-.11.11-.2-.11S66.13,43.93,66.15,43.93Zm-.31,1.87a.12.12,0,0,1,.1,0s.1.06.1.1a1.58,1.58,0,0,1,0,.31c0,.4-.06.49-.37.46-.09,0-.16-.09-.24-.14C65.72,46.37,65.7,46,65.84,45.8ZM66.46,51s-.06-.06-.1-.09a.67.67,0,0,1,.21-.1s.07.06.1.1A.78.78,0,0,1,66.46,51Zm1.39-3.14c-.43.07-.65.45-1,.64s-.69.05-1,.15c-.17,0-.29.29-.52.22-.07,0-.12-.11-.17-.18.56-.32,0-1,.43-1.37.33.49.83.27,1.26.3a3.56,3.56,0,0,1,.56-.54c.26-.16.13-.48.31-.65.5.21.55.71.78,1.11C68.3,47.68,68,47.56,67.85,47.84Zm.85,2.27s-.11-.08-.1-.11a.75.75,0,0,1,.1-.2l.11.11Zm-29.91,24s.1.08.09.1a1,1,0,0,1-.09.21l-.11-.11Zm61-46.32s.06-.07.1-.11a1,1,0,0,1,.09.21s-.06.07-.09.1A.54.54,0,0,1,99.76,27.78Zm27.87,8.66.11.11a.81.81,0,0,1-.21.1s-.06-.06-.1-.1ZM114.28,37c.15,0,.28.06.31.12.1.22.08.48.32.63a.71.71,0,0,1-.1.2s-.1,0-.15,0c-.36-.11-.64-.4-.61-.69C114.05,37.16,114.21,37.07,114.28,37ZM101.41,26.11l.11.21-.11.11a1,1,0,0,1-.09-.21S101.38,26.15,101.41,26.11Zm-1.21-.92c0-.05.22,0,.29,0a4.44,4.44,0,0,1,.44.43l-1.06.11C100,25.58,100.07,25.36,100.2,25.19Zm-.41.64c1.17.28,1.14.71,1.16,1.18h-.82c-.29-.29.11-.85-.42-1.07C99.63,25.91,99.72,25.87,99.79,25.83Zm-3.51-1.08c0-.06.12-.14.2-.19.52-.3.52-.3.11-.78a2,2,0,0,1,1.55,0c-.31.18-.85.18-.62.79a.81.81,0,0,1,.83.36l.16-.89c.08-.12.14-.1.23,0s.32.25.3.33c-.08.37.31.49.36.78a2.17,2.17,0,0,0,.28.6c-.62,0-.88,0-1.06-.26H97.38c-.26-.23-.14-.44-.17-.63-.4,0-.48.47-.81.6C96.17,25.26,96.3,25,96.28,24.75ZM95.34,23h0a.19.19,0,0,1,0-.15c0-.13,0-.27.08-.4s.07,0,.1-.05a4.66,4.66,0,0,1-.12.5c.26-.42.28-.19.19,0a.27.27,0,0,1-.11.1.16.16,0,0,1-.12,0c-.12.3-.26.32-.41.3a.22.22,0,0,1-.21-.19A1.68,1.68,0,0,1,95.34,23Zm-1-1.15s0,.1,0,.1a3,3,0,0,1-.3.14c-.07-.07-.22-.18-.21-.23S94.23,21.7,94.34,21.85Zm-.15.58a.37.37,0,0,1,.52.11.55.55,0,0,1-.15.46l0,0a.75.75,0,0,1-.81-.25Zm-.88-.37.11.21-.11.11a1,1,0,0,1-.09-.21S93.28,22.1,93.31,22.06ZM91.13,14.9l.11.11-.11.2s-.1-.08-.1-.1A1.36,1.36,0,0,1,91.13,14.9Zm-.2.6.31.13a.12.12,0,0,1,0,.1c-.12.16-.45.16-.5,0S90.87,15.57,90.93,15.5Zm-2.6,3.75s-.16-.15-.15-.23a.69.69,0,0,1,.16-.37.32.32,0,0,1,.29,0,5.52,5.52,0,0,1,.49.48C88.83,19.35,88.57,19.23,88.33,19.25Zm.93,2.5a1.36,1.36,0,0,1-.1-.21s.07-.06.1-.1a1,1,0,0,1,.1.21S89.3,21.72,89.26,21.75Zm.18-.87c0-.37-.26-.33-.5-.4s-.2-.47.06-.59.34-.06.39-.16,0-.41.25-.47.38.25.51.24c.57,0,.94.4,1.43.63l-.94.14c.26.29.66.26.83.55.31-.07.49.15.62.35a7.49,7.49,0,0,1,.44.9.19.19,0,0,1,0,.15c-.06,0-.19.1-.21.08a.65.65,0,0,0-.53-.24c-.51,0-1,0-1.58,0-.1-.19-.19-.41-.31-.6S89.47,21.09,89.44,20.88ZM87.82,37.62l.3.13a.12.12,0,0,1,0,.1c-.11.16-.44.16-.5,0S87.75,37.69,87.82,37.62ZM71,54l.21-.11.11.11a1,1,0,0,1-.21.1S71.07,54,71,54Zm2-7.3h1.64l.59.76c.33.51,0,1-.19,1.48s-.61.64-1.22.49c0-.38-.08-.65.16-.93s.19-.45-.11-.57c-.13-.06-.29-.08-.38-.18s-.31-.08-.3,0c0,.39-.28.53-.49.73,0,0-.26-.05-.4-.08a.91.91,0,0,1,.11-.22s.1-.07.1-.11C72.66,47.1,72.64,47.09,73,46.7Zm-.45-1.42s.08-.11.11-.1a.93.93,0,0,1,.2.1l-.11.11Zm2.63-1.44c-.19-.11-.06-.2,0-.27a.15.15,0,0,1,.13,0h0C75.33,43.75,75.24,43.85,75.22,43.84ZM75.9,46c-.08.07-.26,0-.4,0s-.07-.06-.1-.1a4.17,4.17,0,0,1,.43-.41s.18.08.18.11S76,45.92,75.9,46ZM76,52.18l-.12.11a1,1,0,0,1-.09-.21s.06-.07.09-.1Zm-.89,1.35h0a.15.15,0,0,1,0-.13,1.3,1.3,0,0,1,.18-.15,1.72,1.72,0,0,1-.09.19c.14-.13.19-.1.18-.09a.59.59,0,0,1-.14.18.09.09,0,0,1-.09,0,1.29,1.29,0,0,1-.55.58C74.42,53.57,74.42,53.57,75.09,53.53Zm-.83-1s-.07-.07-.12-.12a5.66,5.66,0,0,1,.44-.4s.19.08.18.11a.7.7,0,0,1-.1.4C74.57,52.6,74.39,52.56,74.26,52.55Zm1-1.2a2.11,2.11,0,0,0-1.42-.76l.63-.32c.08,0,.2-.12.21-.11.28.34.86.27,1,.76ZM73.83,54a.62.62,0,0,1-.91,0,.42.42,0,0,1,.1-.39c.09-.08.28-.06.37-.07s.3,0,.33.06S73.88,53.9,73.83,54Zm-1-4s-.07.07-.1.11a1,1,0,0,1-.1-.21s.06-.07.1-.1A1.24,1.24,0,0,1,72.85,50Zm-.51,1.45.11-.09a.34.34,0,0,1,.07.51c-.07.09-.26.09-.4.1s-.11-.17-.09-.2A3.14,3.14,0,0,1,72.34,51.45Zm3.74-1.13a.58.58,0,0,1,.1-.21l.11.11-.11.2S76.07,50.34,76.08,50.32Zm1,2.91a.1.1,0,0,1,.13,0h0c-.06.18-.15.28-.17.27C76.9,53.39,77,53.3,77.13,53.23Zm2.63-13.87s.08-.11.1-.1a1,1,0,0,1,.21.1l-.11.11ZM81,53.69l.2-.11.11.11a2,2,0,0,1-.21.1S81,53.72,81,53.69Zm.31-.62.2-.11.11.11a1,1,0,0,1-.21.09S81.35,53.1,81.32,53.07ZM86.67,31.2a.34.34,0,0,1,.52,0s0,.08,0,.1a.33.33,0,0,1-.51,0S86.66,31.22,86.67,31.2Zm-3.58,4.89c.28-.06.64.26.72.62a.24.24,0,0,1-.23.3,5.26,5.26,0,0,1-.71,0,1.73,1.73,0,0,1,0-.3C82.91,36.5,82.74,36.18,83.09,36.09Zm-2,.93c.25,0,.54,0,.83,0s.53-.14.59.25-.24.4-.4.63A5.45,5.45,0,0,1,81,38,1.56,1.56,0,0,1,81.14,37Zm-.27.94A.15.15,0,0,1,81,38h0c-.06.18-.15.28-.17.27C80.64,38.12,80.77,38,80.87,38Zm-.93-3.1a.83.83,0,0,1-.4,1.22.35.35,0,0,1-.28,0c-.5-.3-.55-.65-.23-1.26a2.18,2.18,0,0,0,.13-.48A2.21,2.21,0,0,1,79.94,34.86Zm-1.24-.65c-.06,0-.11-.12-.16-.18a.77.77,0,0,1,.24-.12A.62.62,0,0,1,79,34a.15.15,0,0,1,.09.1s0,0,0,.06C78.88,34.22,78.78,34.24,78.7,34.21ZM77.77,53.5a.67.67,0,0,1-.19-.14.19.19,0,0,1,0-.08.94.94,0,0,0-.3-.06c0-.19,0-.28.2-.24s.07.16.11.24h0a.1.1,0,0,1,.13,0,.61.61,0,0,1,.15.17l-.18-.08C77.8,53.46,77.77,53.5,77.77,53.5Zm.06-2.67a.81.81,0,0,1-.1.21,1.39,1.39,0,0,1-.21.21l-.1.1a.36.36,0,0,1-.1-.51.36.36,0,0,1,.25-.1A.67.67,0,0,1,77.83,50.83Zm-.56-10.1c0-.46,0-1,0-1.48.11,0,.24.06.24.08,0,.44,0,.89,0,1.33,0,0-.16.07-.21.09a7.13,7.13,0,0,0,0,.81,2.41,2.41,0,0,1-.44.4.43.43,0,0,1-.4,0c-.08-.07-.13-.34-.07-.39C76.66,41.27,76.84,40.87,77.27,40.73Zm-1.63-1.84h.69v.47c0,.2,0,.42-.23.46s-.39,0-.4-.3c0-.13-.13-.25-.2-.37S75.47,38.9,75.64,38.89Zm.07,4.36c0-.66,0-.66.58-.5a.81.81,0,0,1-.58.5.26.26,0,0,1-.3.31C75.43,43.33,75.53,43.25,75.71,43.25Zm-.52-.56a1,1,0,0,1,.21.09l-.11.12-.2-.12S75.16,42.68,75.19,42.69Zm-.57,2.11a1.82,1.82,0,0,0,.52.08,7.21,7.21,0,0,1-.54.55.34.34,0,0,1-.28,0c-.16-.27-.29-.55-.43-.83a2.77,2.77,0,0,1,.26-.1C74.4,44.45,74.45,44.73,74.62,44.8Zm-2.33-1.69.39-.42a1.77,1.77,0,0,1,.3-.06c.31,0,.62,0,.93,0s.44-.06.54.16a.41.41,0,0,1-.21.52c-.32.21-.34.59-.54.87-.46,0-.91,0-1.48,0C72.59,43.76,72.79,43.43,72.29,43.11Zm-.16,1.7.11.2-.11.11a.58.58,0,0,1-.1-.21S72.09,44.84,72.13,44.81Zm-.32-3.12.11.2-.11.12a1,1,0,0,1-.09-.21S71.78,41.73,71.81,41.69Zm-.31.63.11.2-.11.11a2,2,0,0,1-.1-.21S71.47,42.35,71.5,42.32Zm.43,3.76c-.36.05-.63.07-.86.08A1.4,1.4,0,0,1,71.93,46.08Zm0,.92a2.75,2.75,0,0,0-.5-.31,2.84,2.84,0,0,0-.51-.06C71.91,46.52,71.93,46.73,71.93,47Zm-1.32-.89.07.06c-.53,0-.54-.18-.54-.35C70.43,45.75,70.48,46,70.61,46.11Zm-1.24,9.56h-.1a.34.34,0,0,1,0-.52.14.14,0,0,1,.11,0A.35.35,0,0,1,69.37,55.67Zm-.2-6.92s0-.08.07-.12.1-.06.11-.05l.75.72v.5c.15,0,.29,0,.25.2s-.16.07-.25.11V49.8C69.25,49.11,69.25,49.11,69.17,48.75Zm.93,1.37c-.07.18-.16.28-.18.26-.19-.11-.06-.2,0-.27a.15.15,0,0,1,.13,0Zm-.22,14.95c.3.15.59.32.88.5a.68.68,0,0,1,.28.66c0,.37-.2.41-.48.4,0,0-.07.08-.11.11C70,67,70,67,69.7,66.68a1.52,1.52,0,0,1-.22-.22c0-.36,0-.72,0-1.08C69.48,65.17,69.71,65,69.88,65.07Zm-1.33-1.35s.13-.19.24-.2a.55.55,0,0,1,.36.15c-.06.3.18.44.32.63a.33.33,0,0,1,0,.29c-.1.19-.21.11-.32,0a.75.75,0,0,0-.24-.15C68.53,64.27,68.52,64.24,68.55,63.72Zm-.46,5.71a1,1,0,0,1,.3,0,1.58,1.58,0,0,1,.31,0s.11.08.1.1-.07.19-.12.2a4.14,4.14,0,0,1-.61,0s-.1-.08-.1-.1S68,69.46,68.09,69.43Zm-1.57-.94.11.2-.11.11a.81.81,0,0,1-.1-.21S66.48,68.52,66.52,68.49Zm-1.89,4c.28.27.54.52.78.8-.25.26-.54.14-.82.09A.85.85,0,0,1,64.63,72.53Zm-2.76,1.9a.32.32,0,0,1,.1.16H60.8s.05-.1.07-.16Zm-1.22-3.08s.07.07.1.1a1.36,1.36,0,0,1-.21.1s-.06-.07-.1-.1A2,2,0,0,1,60.65,71.35Zm-1.89.84c.07-.13.07-.28.13-.41s.13-.09.2-.13.1.09.1.13c0,.2,0,.43.26.45.45,0,.34.16.13.41s0,.39-.08.59-.09.22-.15.23a.44.44,0,0,1-.43-.09C58.49,73,58.46,72.77,58.76,72.19ZM57.43,71a.14.14,0,0,1,.11,0,.35.35,0,0,1,0,.52h-.1A.34.34,0,0,1,57.43,71Zm-.72-.18a.83.83,0,0,1,.17-.15l0,.19-.07.09a.15.15,0,0,1-.13,0A.11.11,0,0,1,56.71,70.85Zm-1.86,3.44c0-.16.16-.2.3,0s.13.07.25.13a1.57,1.57,0,0,0,.05-.46c-.16-.59.49-1,.36-1.57,0,0,.16-.12.25-.11s.3-.08.32-.24,0-.6.06-.91c0,0,.06-.09.11-.1s.12.09.17.13a1.34,1.34,0,0,1,.24.32v-.16a2.17,2.17,0,0,1,0,.25.36.36,0,0,0,0-.09c0,.16,0,.35,0,.59a.73.73,0,0,0,.07-.24c.39,2.61.57,2.62.77,2.62l.3-.64a.74.74,0,0,1,.08.82H54.82A2.77,2.77,0,0,1,54.85,74.29Zm67.35,2.52L122,76.6c-.11.1-.22.21-.34.3a.19.19,0,0,1-.15,0,2.3,2.3,0,0,1-.37-.23l-.13-.12h1.2ZM113.88,86.9a1.08,1.08,0,0,0,.83-.23c.24-.17.37-.15.53,0l.74.74.88-.68c-.53-.53-1-1-1.46-1.48-.22-.26-.57-.18-.76-.43s-.47-.13-.71-.13c-.62,0-1.24,0-1.85,0a.24.24,0,0,0-.23.32c0,.09.07.24.12.25.34,0,.54.13.55.53,0,.15.26.25.27.48a54.3,54.3,0,0,1-12.23-9.73h18.59l0,0s.11,0,.13,0,0,0,0,0h1.29c0,.09,0,.16-.06.18-.4.26-.17.46,0,.7a1.28,1.28,0,0,1,.12.43,1.18,1.18,0,0,1,1.51-.11c0,1.34,0,2.89,0,4.45h-.34a1.43,1.43,0,0,1,.34.26c0,4.05.06,8.09.06,8.57A74.66,74.66,0,0,1,113.88,86.9Zm60.78,19.37c.2,0,.43-.19.57.18l-.79.22A.27.27,0,0,1,174.66,106.27Zm-2.92-6.17c0,.18-.18.28-.31.2s-.15-.14-.24-.22l.31-.08h.19A.19.19,0,0,1,171.74,100.1Zm-6.92.72a.5.5,0,0,1-.1-.14l.11,0,.09.15S164.84,100.84,164.82,100.82Zm3.18,1c-.09,0-.2-.09-.3-.13a.6.6,0,0,1-.44-.7.89.89,0,0,0,0-.43s0-.06.05-.06.16,0,.2,0a1,1,0,0,1,.17.28c.09.15.18,0,.36,0a5,5,0,0,1,.19.76C168.23,101.66,168.09,101.8,168,101.8Zm.15,1.12,0-.11h.17s0,.07,0,.1Zm.35,6.49c0,.07-.15.09-.22.14s0-.12.3-.22A.59.59,0,0,0,168.5,109.41Zm-.22-.06s0-.08.05-.09.14-.09.18-.08.1.07.09.11Zm.4-.08-.07,0a.73.73,0,0,1,0-.09c.09,0,.19-.09.2.07S168.81,109.24,168.68,109.27Zm.67-8.6c.05-.27.13-.49.45-.55a1.66,1.66,0,0,0,.31-.12h.23c.06.18.1.32.14.45-.12.18-.16.4-.44.47A.63.63,0,0,1,169.35,100.67Zm.18,11.12-.1-.15s.09,0,.1,0,.07.09.11.14Zm1.52-7.25c-.15-.06-.27-.12-.42,0s-.14,0-.14-.08,0-.07,0-.1a.6.6,0,0,1,.66-.22.23.23,0,0,1,.13.16C171.32,104.4,171.17,104.59,171.05,104.54Zm.46,2.1a.47.47,0,0,1,0-.17s.06,0,.1,0v.17Zm.59-3.3a.18.18,0,0,1-.28.07l-.31-.17-1,.24c-.19-.43-.19-.42-.47-.37s-.35.17-.56.09-.18-.19-.13-.27.08-.16.13-.17c.36-.06.43-.25.29-.57a.78.78,0,0,1-.09-.33c0-.09.11-.17.19-.27.28.66.28.66.81.87.1-.19.22-.38.31-.59s.27-.24.4-.35-.05-.4.12-.58.13-.36.37-.38.08-.16.06-.25a.25.25,0,0,1,.16-.31h0l0,0c.14.23.25.45.06.7a.61.61,0,0,0-.09.74c.14.22-.07.42,0,.64s-.18.35-.39.42c.1.2.06.46.32.58C172.14,103.07,172.14,103.26,172.1,103.34Zm.71,7.52-.17,0s0,0,.12-.16h0s.08,0,.08,0S172.83,110.85,172.81,110.86Zm.37.24c-.17.11-.13-.09-.19-.16a.61.61,0,0,1-.11-.35l.27-.29s0,0,0,.08a2.4,2.4,0,0,1,.12.44A.33.33,0,0,1,173.18,111.1Zm.63-1.35-.34.22.49-.51v.09C174,109.7,173.9,109.7,173.81,109.75Zm.6-1.28c-.28-.1-.34.07-.41.23a1.43,1.43,0,0,0-.05.65c-.26.3-.63.69-1.07,1.15a.52.52,0,0,1,0-.25c0-.13,0-.22-.09-.28s-.22-.22-.1-.36.07-.5,0-.74c-.32,0-.2.48-.54.46-.08-.3.15-.5.29-.7s.32-.1.49-.11.07.16.11.25l.45-.14c-.06-.08-.09-.16-.15-.19s-.17-.24-.07-.37a.18.18,0,0,1,.29,0,.62.62,0,0,0,.82,0c.32-.23.37-.19.51.2,0,0,0,.07-.16.28A.62.62,0,0,1,174.41,108.47Zm.14.82.76-.32c.09.23-.07.33-.1.47a.69.69,0,0,0,0,.32c0,.1,0,.14-.1.13A.68.68,0,0,1,174.55,109.29Zm.74,2.55a1.1,1.1,0,0,1-.2-.23l.31,0,.1.18C175.43,111.84,175.34,111.87,175.29,111.84Zm2.53-4.4a1.21,1.21,0,0,1-.1-.14s.09,0,.1,0a1.71,1.71,0,0,1,.11.14S177.84,107.45,177.82,107.44Zm3-1.69,0-.12.14-.08s0,.08,0,.1A1.7,1.7,0,0,1,180.85,105.75Z"/><path class="ec358195-8646-4caf-af72-3021aea6434e" d="M183.08,108.77a.14.14,0,0,0,0-.07.64.64,0,0,0,0-.07.33.33,0,0,1,0-.06A2,2,0,0,0,183.08,108.77Z"/><path class="ec358195-8646-4caf-af72-3021aea6434e" d="M67.6,42.32h0a.64.64,0,0,1,0,.07S67.63,42.35,67.6,42.32Z"/><path class="ec358195-8646-4caf-af72-3021aea6434e" d="M124.43,35.15a.14.14,0,0,0-.11,0s0,0,0,.05l.16,0A.32.32,0,0,1,124.43,35.15Z"/><path class="ec358195-8646-4caf-af72-3021aea6434e" d="M71.15,41.38a.13.13,0,0,0-.11,0s0,0,0,0l.16,0A.32.32,0,0,1,71.15,41.38Z"/><path class="ec358195-8646-4caf-af72-3021aea6434e" d="M75.71,38v0S75.72,38,75.71,38Z"/><path class="ec358195-8646-4caf-af72-3021aea6434e" d="M56.72,72.9c0,.22.21.41.27.62,0-.63,0-1.12,0-1.49a.7.7,0,0,1-.1.16A.79.79,0,0,0,56.72,72.9Z"/><path class="ec358195-8646-4caf-af72-3021aea6434e" d="M86.22,12l-.21.11a.08.08,0,0,0,.1,0Z"/><path class="ec358195-8646-4caf-af72-3021aea6434e" d="M57,73.55s0,0,0,0c0,.27,0,.56,0,.89A4.76,4.76,0,0,0,57,73.55Z"/><path class="ec358195-8646-4caf-af72-3021aea6434e" d="M95.4,22.9l-.06.1h0A1,1,0,0,0,95.4,22.9Z"/><path class="ec358195-8646-4caf-af72-3021aea6434e" d="M77.58,53.23a.07.07,0,0,0,0,.05l.11,0-.1-.09Z"/><path class="ec358195-8646-4caf-af72-3021aea6434e" d="M75.18,53.44l-.09.09h0A.93.93,0,0,0,75.18,53.44Z"/><path class="ec358195-8646-4caf-af72-3021aea6434e" d="M79.85,94.06c-.67-.37-1.5-.39-2.1-.94-.44,0-.93-.2-1.26.3h-4.7a5.3,5.3,0,0,1-.53.53.61.61,0,0,1-.41,0s-.13-.17-.12-.25c0-.3-.09-.6.08-.9a.4.4,0,0,0-.15-.58.78.78,0,0,0-.42-.07c-.16,0-.19.29-.06.52s.17.24.23.37-.1.35-.23.32a1.52,1.52,0,0,1-.4-.16c-.42-.24-.44-.22-.62.2a4.45,4.45,0,0,1-.26.48c.19.28.63.39.59.85,0,.06.13.19.19.18.38,0,.65.2,1,.31a5.64,5.64,0,0,1,2.73,1.59,1.59,1.59,0,0,0,.35.29,5.5,5.5,0,0,1,1.17.57c.35.24.93-.16,1.26.34,0,0,.19,0,.29,0h2.89a2.89,2.89,0,0,1,.26-.6c.09-.14.17-.31,0-.32-.57,0-.72-.53-1.07-.8,0,0,0-.3.1-.4a1.67,1.67,0,0,1,.46-.37,8.94,8.94,0,0,0,1-.53c.1-.06.22-.25.19-.31C80.18,94.51,80.07,94.18,79.85,94.06Z"/><path class="ec358195-8646-4caf-af72-3021aea6434e" d="M35.05,81.26a3.13,3.13,0,0,1-.92,0c-.21-.06-.35-.3-.65-.3-1.3,0-2.59,0-3.88,0a.3.3,0,0,0-.24.52.74.74,0,0,1-.06,1.18c0,.29-.27.45-.3.65a1.13,1.13,0,0,1-.28.57c.36.37.72.73,1.07,1.1a.34.34,0,0,0,0-.52.72.72,0,0,1-.14-.91l.85.7c.07.39-.15.78.16,1.07a1,1,0,0,0,1-.29c0-.06.26,0,.42.07l-.33.54h3c.13,0,.34-.06.38-.15a.42.42,0,0,0-.19-.53c-.42-.31-.5-.82-.72-1.25.18-.31.37-.63.8-.55s.43-.21.65-.32c.51-.24.54-.33.21-.67Zm-3,2.8c-.08,0-.16-.09-.23-.15s.15-.14.23-.14a2.8,2.8,0,0,1,.53.14A2.21,2.21,0,0,1,32,84.06Zm.91.89a2,2,0,0,1-.21-.1l.11-.11.2.11S33,85,32.92,85Z"/><path class="ec358195-8646-4caf-af72-3021aea6434e" d="M57.81,56.33l0,0h0Z"/><path class="ec358195-8646-4caf-af72-3021aea6434e" d="M53.16,52.91a.72.72,0,0,1,.72.79c0,.38.27.52.48.77.34,0,.7,0,1.06,0s.68-.14,1,.18l-.3.13c-.34.1-.34.09,0,.48l-1.26.9a3.09,3.09,0,0,1,.31.39c.07.12.06.34.16.39s.38,0,.52-.19.39-.09.58-.09.29,0,.23.53c-.28.16-.6,0-.89.09s-.62-.13-.88.12a.86.86,0,0,0,.27,1c.15.12.23.13.34,0s.48-.14.71-.13.23.26.35.26.23-.32.49-.27.28-.09.3-.25,0-.4,0-.65h1.05c.2-.2.4-.32.48-.5a.89.89,0,0,0,0-.6c-.1-.22-.37-.35-.3-.66s-.1-.51.11-.73l.12,0c.11,0,.13.31.32.15a.37.37,0,0,0,.07-.28.25.25,0,0,0-.3-.25,1.76,1.76,0,0,0-.46,0,2.51,2.51,0,0,1-1.7.18c.1-.21.46-.43.27-.61-.37-.35-.28-.74-.3-1.21-.19.14-.33.34-.49.36a1.53,1.53,0,0,0-.53.25.84.84,0,0,1-1.15-.4,2,2,0,0,1,0-.65,1.86,1.86,0,0,1-.53-.19.62.62,0,0,0-.67-.19c-.16.17-.4.43-.63.71,0,0,0,.07.05.14Zm4.49,3.28c0-.06.13-.12.2-.16s.1,0,.15,0l-.19.3c.28-.23.36-.21.42-.17-.1.06-.2.16-.3.16l-.13,0a1.39,1.39,0,0,0-.17.41c0,.07-.11.11-.18.16a.72.72,0,0,1-.12-.23.66.66,0,0,1,.06-.27.22.22,0,0,1,.1-.09c.15-.05.2,0,.15.14l.14-.12C57.7,56.38,57.62,56.37,57.65,56.19Zm-.12-.73s.07.06.11.1a2,2,0,0,1-.21.1s-.07-.07-.1-.1A.75.75,0,0,1,57.53,55.46Z"/><path class="ec358195-8646-4caf-af72-3021aea6434e" d="M107.59,20.16h2c.26-.3-.07-.76.35-1a.43.43,0,0,0,0-.4c-.31-.27-.29-.75-.64-1a.61.61,0,0,1-.24-.36.29.29,0,0,1,.08-.26,1.89,1.89,0,0,1,.58-.08c.49,0,.78-.37,1.19-.49,0,0,0-.2,0-.29s-.19-.1-.2-.08c-.17.25-.42.24-.69.24a.29.29,0,0,1-.33-.22.33.33,0,0,1,0-.29c.16-.19.36-.37.54-.55,0,0,0-.08,0-.11s-.09-.08-.12-.08a1,1,0,0,0-.4.15c-.17.15-.35.23-.54.11s-.27-.31-.65-.23l-.64.83c.27.35.31.47.17.61-.28.3-.57.59-.86.88,0,.56-.53.71-.78,1.08,0,.06-.11.17-.09.21.14.25.3.48.45.72C107.26,19.5,107.34,20.11,107.59,20.16Z"/><path class="ec358195-8646-4caf-af72-3021aea6434e" d="M81.26,9.91a2.35,2.35,0,0,1,.39.19c.16.12.28.3.44.42s.33,0,.4.12a1.93,1.93,0,0,1,.21.56c.19-.24.36-.42.66-.35s.45-.16.63-.34-.07-.85.43-1.06c0,0,0-.09,0-.14A.86.86,0,0,0,84.34,9a3.27,3.27,0,0,0-.87-1.18,1.79,1.79,0,0,0-.41-.13c-.14,0-.32,0-.42-.09s-.32-.3-.52-.21a.77.77,0,0,0-.43.42,1.36,1.36,0,0,1-.45.74L80.81,9c-.19.19-.15.44.1.64A2.8,2.8,0,0,0,81.26,9.91Z"/><path class="ec358195-8646-4caf-af72-3021aea6434e" d="M86.21,99c.1-.09.1-.15,0-.22a.18.18,0,0,0-.14,0l-.77.35-1.82-1.85c-.7-.23-1.41.23-2-.36-.2-.2-.42.18-.64.29-.53.29-.55.3-.23.67a1.76,1.76,0,0,1,.48.74c.07.3.47.53.71.78h1c.48-.41.51-.44.85-.07a1,1,0,0,0,1.49.2c.3-.2.3.12.45.15s.23-.34.48-.28C85.94,99.14,86.11,99.06,86.21,99Z"/><path class="ec358195-8646-4caf-af72-3021aea6434e" d="M40.17,85.88c-.26-.63-.91-.85-1.44-1.19l-2.46,0c-.05,0-.15.18-.12.24a3.26,3.26,0,0,0,.41.91,13.38,13.38,0,0,0,1,1c.41-.08.91.17,1.25-.32,0,0,.3,0,.4.11.31.27.58.56.93.91.88-.64.82-.59.34-1.21A2.07,2.07,0,0,1,40.17,85.88Z"/><path class="ec358195-8646-4caf-af72-3021aea6434e" d="M52,78.46c-.24-.18-.46-.39-.74-.62H50.05a.75.75,0,0,0-.15,0,1.15,1.15,0,0,0-.28.07,2.39,2.39,0,0,0-.7,1.55.24.24,0,0,0,.3.25c.19,0,.42.09.57-.1l.06-.14c.12-.41.3-.5.58-.27.12.1.22.22.33.33-.31.25-.24.73-.59,1-.11.07,0,.1.13.16.62.43,1.06.4,1.39-.15,0,0,0-.1,0-.14.17-.34.31-.7.51-1,0,0,.09-.07.11-.11C52.43,79,52.23,78.65,52,78.46Z"/><path class="ec358195-8646-4caf-af72-3021aea6434e" d="M112.38,19.5c-.44.06-.9.08-1.36.11-.17.23-.49.36-.42.76a7.06,7.06,0,0,1,0,.92l.45.45c.19-.15.34-.4.63-.29s.55-.49,1-.34c.17-.23.49-.35.47-.74,0-.18.27-.24.49-.12a2.16,2.16,0,0,1,.31.24.68.68,0,0,0,.1-.63.66.66,0,0,0-.6-.58c-.16,0-.33.17-.51.26C112.78,19.42,112.78,19.45,112.38,19.5Z"/><path class="ec358195-8646-4caf-af72-3021aea6434e" d="M115.12,28.92h1.25s.07.13.12.24l-.86.12c0,.17,0,.26,0,.36s0,.29-.07.7c-.28-.46-.66-.57-.55-1a2.21,2.21,0,0,0-.59-.45c-.18-.05-.49-.16-.63.16a4.73,4.73,0,0,1,.54.56c.18.23-.12.62.23.82.45,0,.91-.1,1.28.3,0,0,.28-.06.39-.14s.33-.23.32-.31c-.1-.45.25-.75.3-1.12a1.82,1.82,0,0,0-.09-1.23,9.92,9.92,0,0,1-1.22,0c-.44,0-.62.22-.8.51Z"/><path class="ec358195-8646-4caf-af72-3021aea6434e" d="M57,61.51s0-.07-.08-.19a5.18,5.18,0,0,0-.55,0,.5.5,0,0,0-.25.13c-.22.22-.24.13-.35-.12-.3-.71-.59-.8-1.25-.46-.17.08-.39.1-.52.23s-.1.4-.23.5A3.45,3.45,0,0,0,53,62.84c0,.07.09.26.19.34s.21,0,.28,0,.09-.16.14-.25c.38-.74.43-.76,1.24-.49v.77H55c.2,0,.43.05.46-.24s0-.51,0-.77c0-.08.11-.15.16-.23h.93Z"/><path class="ec358195-8646-4caf-af72-3021aea6434e" d="M58.94,47.19c0,.05.12.05.25,0s0,0,0,0,.12-.1.09,0c.12-.11.19-.06.18,0a.52.52,0,0,1-.14.19h0a2.5,2.5,0,0,1,.22,1.11.71.71,0,0,0,.38.13c.13,0,.28-.13.07-.28s-.17-.46-.17-.7.11-.26.3-.26.25-.06.25-.1A1.8,1.8,0,0,1,61,45.91c.21-.2-.06-.45-.25-.62a1.92,1.92,0,0,0,.18-.22,1.19,1.19,0,0,0,.11-.26c-.39,0-.81-.1-1.21.09,0,.09.1.16.13.23a.63.63,0,0,1,.07.22s-.09.09-.12.08a3.31,3.31,0,0,1-.41-.14c-.07,0-.18-.13-.21-.11-.21.15,0,.5-.33.63-.13,0-.1.13,0,.22s.24.17.06.33S58.86,46.9,58.94,47.19Zm1.35-1.45a1,1,0,0,1,.09.21s-.06.07-.09.11a.67.67,0,0,1-.1-.21S60.25,45.78,60.29,45.74Z"/><path class="ec358195-8646-4caf-af72-3021aea6434e" d="M59.19,47.19a.14.14,0,0,0,0,.11.13.13,0,0,0,.12,0,.7.7,0,0,1,0-.14Z"/><path class="ec358195-8646-4caf-af72-3021aea6434e" d="M122.68,33.37a4.44,4.44,0,0,1,.44.43c.63.62.64.6,1.09-.24.14-.26,0-.52.12-.73s.37-.35.3-.65.1-.52-.12-.73l-.63.93c-.25-.41-.75-.33-1-.64,0,0-.28.05-.39.13a1.39,1.39,0,0,0-.3.29,1.81,1.81,0,0,1,.26.52C122.47,32.94,122.43,33.18,122.68,33.37Z"/><path class="ec358195-8646-4caf-af72-3021aea6434e" d="M21.82,72.22c-.15,0-.33,0-.25.21s.26.09.4.11h.3l.34-.34a.75.75,0,0,1,1.17,0c.19.16.32.43.63.36.25.34.76.26,1,.61l.46-.45c0-.29.1-.67,0-.89s-.25-.53-.4-.78c-.36,0-.07.44-.32.55-.09,0-.15.15-.23.22a.34.34,0,0,1-.52,0,6.1,6.1,0,0,1-.45-.54,2.8,2.8,0,0,1-1,0c-.27-.12-.45-.45-.73-.14a2,2,0,0,1,.26.53c0,.11-.12.27-.23.37A.9.9,0,0,1,21.82,72.22Zm3.26,0a.78.78,0,0,1,.09.21s-.06.07-.09.1a1,1,0,0,1-.1-.21S25,72.26,25.08,72.23Z"/><path class="ec358195-8646-4caf-af72-3021aea6434e" d="M57,52.92a2.4,2.4,0,0,1,.38.21c.26.17.26-.2.45-.22a1.69,1.69,0,0,1,1.35.62c.31,0,.29-.18.32-.39s.4-.34.3-.64-.42-.15-.64-.22a1.62,1.62,0,0,1-.37-.23.35.35,0,0,0-.52.07c-.11.12-.18.14-.34,0a1.22,1.22,0,0,0-1.24,0v.82A.8.8,0,0,1,57,52.92Z"/><path class="ec358195-8646-4caf-af72-3021aea6434e" d="M126.74,32.45a7.55,7.55,0,0,1,.86.84c.12-.25.23-.46.34-.67.32-.65,0-1.17-.75-1.22-.54,0-.85.37-1.24.47C126.05,32.28,126.46,32.26,126.74,32.45Z"/><path class="ec358195-8646-4caf-af72-3021aea6434e" d="M55.63,85.32a.83.83,0,0,0,.13-.56c0-.13-.13-.37-.16-.36-.31,0-.43-.23-.65-.32s-.27,0-.54.1l.73.57v1a1.68,1.68,0,0,0,.32,1.1c.48,0,1,.07,1.2-.45l-.27-.48h-.46C55.42,85.92,55.34,85.8,55.63,85.32Z"/><path class="ec358195-8646-4caf-af72-3021aea6434e" d="M126.81,72.64c0,.18.34.31.48.19A2.2,2.2,0,0,0,128,71.6a5.29,5.29,0,0,0,0-1.38c0-.14,0-.28-.09-.75-.18.52-.51.55-.54.91a1,1,0,0,0,.3.78c-.26.26-.5.52-.77.76S126.82,72.4,126.81,72.64Z"/><path class="ec358195-8646-4caf-af72-3021aea6434e" d="M86.45,91.54c-.31-.36-.33-.37-.84-.07a.39.39,0,0,1-.53,0,3.23,3.23,0,0,0-.57-.48c-.08,0-.26.06-.42.1l.33.35-.29.33.45.44.32-.3c.11.1.21.29.33.3a7.09,7.09,0,0,0,1.22,0c.07,0,.14-.24.15-.37S86.51,91.62,86.45,91.54Z"/><path class="ec358195-8646-4caf-af72-3021aea6434e" d="M18.53,71c.14.12.21.36.47.32a.69.69,0,0,1,.29-.75c-.06-.53.29-.51.65-.49,0-.42-.34-.27-.53-.37-.74-.37-.74-.37-1.38.29l.35.75A.7.7,0,0,0,18.53,71Z"/><path class="ec358195-8646-4caf-af72-3021aea6434e" d="M62.23,46.77c.17.14.11.35-.06.52a.59.59,0,0,0-.12.22c0,.07.36.18.41.1.22-.38.75-.26,1-.64.11-.19.18-.39,0-.53s-.31-.47-.61-.37-.5-.24-.89-.28C62.06,46.14,61.86,46.48,62.23,46.77Z"/><path class="ec358195-8646-4caf-af72-3021aea6434e" d="M52.16,85c-.06-.12-.08-.27-.14-.4s-.17-.22-.29,0-.47.19-.7.15c-.54-.1-.93.24-1.38.39-.08,0-.14.29-.1.39s.3.2.37.15a5.31,5.31,0,0,0,.71-.58l.63.59c.18-.3.47-.31.79-.31S52.32,85.29,52.16,85Z"/><path class="ec358195-8646-4caf-af72-3021aea6434e" d="M130.41,34.52c.31-.31.62-.65,1-1,.11-.11.14-.15,0-.25H130.2l-.91.72A1,1,0,0,0,130.41,34.52Z"/><path class="ec358195-8646-4caf-af72-3021aea6434e" d="M20.88,71.37a1.86,1.86,0,0,0-.31.46.55.55,0,0,0,.14.38c0,.05.21.05.29,0a.34.34,0,0,0,.18-.21c.07-.33-.15-.71.1-1,.18-.06.37-.06.44-.15s-.1-.21-.17-.32c-.2-.3-.68-.17-.85-.52h-.79C20.08,70.6,20.78,70.75,20.88,71.37Z"/><path class="ec358195-8646-4caf-af72-3021aea6434e" d="M87.93,98.79a2.55,2.55,0,0,1-1.78.55H86s0,.12,0,.14a7.58,7.58,0,0,1,.63.89c.11.33.4.18.62.21v-.77a1.56,1.56,0,0,0,.92-.67.33.33,0,0,0,0-.29C88.09,98.71,88,98.74,87.93,98.79Z"/><path class="ec358195-8646-4caf-af72-3021aea6434e" d="M45.35,55c.15-.34.58-.14.75-.41l-.3-.32c.33-.16.84-.18.62-.78-.24,0-.51-.06-.67.21s-.12.12-.22,0a1.28,1.28,0,0,0-.36-.22c0,.39.12.81-.29,1.1-.05,0,0,.31.09.39S45.33,55.09,45.35,55Z"/><path class="ec358195-8646-4caf-af72-3021aea6434e" d="M63.24,92.7s0-.09-.06-.13l-.11-.11c-.07-.07-.13-.18-.22-.21a.86.86,0,0,0-.42,0s-.12.16-.11.25-.09.4.09.58.25.78.66,1a.27.27,0,0,0,.15,0l.34-.16c0-.11,0-.18,0-.21A1.31,1.31,0,0,1,63.24,92.7Z"/><path class="ec358195-8646-4caf-af72-3021aea6434e" d="M88.59,95.59c-.09.08-.26.07-.42.1.24.3.4.63.84.53s.35.36.55.64c.64-.69.61-.65,0-1.28C89.18,95.15,88.93,95.28,88.59,95.59Z"/><path class="ec358195-8646-4caf-af72-3021aea6434e" d="M139.41,35.79c.31-.06.59.1.8-.17,0-.15,0-.3,0-.46s-.26-.43-.45-.58-.35,0-.52.12a1.76,1.76,0,0,1-.54.23Z"/><path class="ec358195-8646-4caf-af72-3021aea6434e" d="M24.81,78.16c-.08,0-.19.13-.19.2,0,.24-.06.48.12.72s.31.74.69.94a.16.16,0,0,0,.15,0,2.26,2.26,0,0,0,.31-.23c-.28-.57-.53-1.09-.8-1.6C25.07,78.13,24.89,78.13,24.81,78.16Z"/><path class="ec358195-8646-4caf-af72-3021aea6434e" d="M118.7,87.41c0-.19.06-.41-.16-.54h-.77a1.73,1.73,0,0,0,.85,1.32c.08,0,.13.18.22.21s.37.1.46-.15C119.11,88,118.68,87.86,118.7,87.41Z"/><path class="ec358195-8646-4caf-af72-3021aea6434e" d="M111.29,15.73a.32.32,0,0,0,.51,0c.16-.17.47-.32.35-.59a.75.75,0,0,0-.78-.55,2.38,2.38,0,0,1-.41,0C110.93,15.41,110.94,15.43,111.29,15.73Z"/><path class="ec358195-8646-4caf-af72-3021aea6434e" d="M86.23,6.08c.16-.17.43-.29.38-.59a.9.9,0,0,0-.77-.56h-.37a.85.85,0,0,0,.25,1.13A.36.36,0,0,0,86.23,6.08Z"/><path class="ec358195-8646-4caf-af72-3021aea6434e" d="M51.52,81.28c-.36-.16-.53.43-.92.33,0,0-.07.07-.11.1.22.26.39.59.83.49a1.19,1.19,0,0,1,.46,0,.43.43,0,0,1,.24.14c.12.13.22.16.32,0s-.05-.36-.15-.46A2.94,2.94,0,0,0,51.52,81.28Z"/><path class="ec358195-8646-4caf-af72-3021aea6434e" d="M119.64,30.63a.23.23,0,0,0,.11.11,1.85,1.85,0,0,1,1.1.35c.09.07.3,0,.45,0s.3-.34.19-.49a4.7,4.7,0,0,0-.45-.44,4,4,0,0,1-.6,0c-.3-.05-.45.16-.66.3S119.59,30.48,119.64,30.63Z"/><path class="ec358195-8646-4caf-af72-3021aea6434e" d="M117.31,25.5c-.06,0-.07.14-.1.21s.2.11.27.08a2,2,0,0,0,.37-.22c.23-.13.28.3.43.17s.43-.27.43-.59-.11-.28-.58-.28h-1C117.24,25.19,117.58,25.25,117.31,25.5Z"/><path class="ec358195-8646-4caf-af72-3021aea6434e" d="M83.51,6.3c.51.23.15.76.4,1.07,0,0,.08,0,.11,0s.31-.23.46-.35c-.45-.55-.46-.55-.12-.92l.39-.39c-.23-.2-.39-.2-.58,0a1.36,1.36,0,0,1-.37.21C83.58,5.94,83.38,6.25,83.51,6.3Z"/><path class="ec358195-8646-4caf-af72-3021aea6434e" d="M119.83,34.5c-.27.28-.27.38.06.74l.21.21a.79.79,0,0,1,.78-.3.73.73,0,0,0-.2-.69C120.3,34.13,120.19,34.11,119.83,34.5Z"/><path class="ec358195-8646-4caf-af72-3021aea6434e" d="M133.45,67.81c.29,0,.59.18.83-.1v-.63l-1-.47C133.43,67.06,133.22,67.44,133.45,67.81Z"/><path class="ec358195-8646-4caf-af72-3021aea6434e" d="M54.09,55.77s-.18-.06-.27-.05a.25.25,0,0,0-.24.3,3.88,3.88,0,0,1,0,.49,9.84,9.84,0,0,0,.81.75C54.78,56.63,54.24,56.24,54.09,55.77Z"/><path class="ec358195-8646-4caf-af72-3021aea6434e" d="M121.06,33.28c-.24,0-.51-.09-.81.15a6.72,6.72,0,0,0,.87.79,1.89,1.89,0,0,1,.09-.45c.07-.17.19-.18.3,0s.24.13.31,0a1.07,1.07,0,0,0,0-.31c0-.38,0-.37-.34-.25A3.31,3.31,0,0,1,121.06,33.28Z"/><path class="ec358195-8646-4caf-af72-3021aea6434e" d="M55.91,63.82c.25-.18.24-.41,0-.63-.26.45-.7.29-1.18.32.16.18.28.33.39.47l-.32.36C55.44,64.65,55.59,64,55.91,63.82Z"/><path class="ec358195-8646-4caf-af72-3021aea6434e" d="M95.23,15.78c.2-.15.08-.37.1-.55s-.27-.38-.44-.66a3.6,3.6,0,0,0-.28.28c-.32.36-.32.41,0,.72S95.1,15.89,95.23,15.78Z"/><path class="ec358195-8646-4caf-af72-3021aea6434e" d="M31.55,69.42c.07,0,.14-.1.22-.16-.37-.22-.3-.58-.32-.93,0,0-.15-.1-.27-.18s-.3.1-.33.2A.83.83,0,0,0,31.55,69.42Z"/><path class="ec358195-8646-4caf-af72-3021aea6434e" d="M55,86.88a3.34,3.34,0,0,0-.43.05,6.44,6.44,0,0,0,.35.78.43.43,0,0,0,.4.07,2.23,2.23,0,0,0,.44-.43C55.35,86.88,55.35,86.87,55,86.88Z"/><path class="ec358195-8646-4caf-af72-3021aea6434e" d="M89,98.72a.35.35,0,0,0-.16.22c0,.23-.1.5.2.75.22-.25.46-.5.67-.77a.37.37,0,0,0,0-.27c0-.09-.09-.16-.14-.24C89.4,98.57,89.26,98.79,89,98.72Z"/><path class="ec358195-8646-4caf-af72-3021aea6434e" d="M58.34,87.82c-.13,0-.37.09-.37.15a.66.66,0,0,1-.23.52c-.11.11,0,.24.14.25s.39,0,.69,0c0-.31,0-.47,0-.62A.23.23,0,0,0,58.34,87.82Z"/><path class="ec358195-8646-4caf-af72-3021aea6434e" d="M48.46,82.83c-.05,0-.12.18-.12.18.25.19.27.36,0,.55,0,0,.06.17.12.19s.26,0,.28,0c.16-.26.29-.55.48-.93C48.86,82.82,48.66,82.81,48.46,82.83Z"/><path class="ec358195-8646-4caf-af72-3021aea6434e" d="M53.94,81.93v1c.83-.72.91-.83.78-1Z"/><path class="ec358195-8646-4caf-af72-3021aea6434e" d="M46.73,54l.83.41L48,54c-.29-.19-.61-.17-.81-.45-.07-.1-.13,0-.15.14S46.84,53.9,46.73,54Z"/><path class="ec358195-8646-4caf-af72-3021aea6434e" d="M118.45,31.52a.55.55,0,0,0,0,.4,3.29,3.29,0,0,0,.41.43l.46-.48c-.15-.15-.25-.27-.36-.36S118.5,31.37,118.45,31.52Z"/><path class="ec358195-8646-4caf-af72-3021aea6434e" d="M91.3,98.79c0,.07.09.16.14.24.15-.31.51-.26.73-.43,0,0,0-.18.06-.33s-.21-.18-.31-.17A.75.75,0,0,0,91.3,98.79Z"/><path class="ec358195-8646-4caf-af72-3021aea6434e" d="M92.44,96.16c.1-.09.1-.15,0-.21h-.78v.91c.28-.1.33-.38.58-.33C92.17,96.34,92.34,96.26,92.44,96.16Z"/><path class="ec358195-8646-4caf-af72-3021aea6434e" d="M120,76.8c0-.14-.16-.26-.32-.2s-.29-.16-.32.14c0,.11-.2.2-.49.47.49,0,.68,0,.87,0A.3.3,0,0,0,120,76.8Z"/><path class="ec358195-8646-4caf-af72-3021aea6434e" d="M60.21,62.89a.72.72,0,0,0-.38.16.28.28,0,0,0,0,.28c.15.16.25.4.51.44.19-.23.07-.49.09-.73C60.43,63,60.28,62.88,60.21,62.89Z"/><path class="ec358195-8646-4caf-af72-3021aea6434e" d="M62.4,33.58c.07,0,.18-.09.21-.17a.7.7,0,0,0,0-.29.75.75,0,0,0,0-.15c0-.09-.07-.18-.1-.26a.78.78,0,0,0-.22.12,1.3,1.3,0,0,0-.29.33.3.3,0,0,0,0,.28A.73.73,0,0,0,62.4,33.58Z"/><path class="ec358195-8646-4caf-af72-3021aea6434e" d="M51.39,83.91c0-.24.11-.49-.13-.79a5.38,5.38,0,0,0-.47.49.3.3,0,0,0,0,.29.76.76,0,0,0,.38.16C51.24,84.07,51.4,84,51.39,83.91Z"/><path class="ec358195-8646-4caf-af72-3021aea6434e" d="M111.67,16.81a.78.78,0,0,0-.12.39.27.27,0,0,0,.19.18c.24,0,.49,0,.74,0a1,1,0,0,0-.55-.62C111.87,16.74,111.7,16.76,111.67,16.81Z"/><path class="ec358195-8646-4caf-af72-3021aea6434e" d="M104.69,18c0,.09,0,.23.1.25a.51.51,0,0,0,.4,0,2.76,2.76,0,0,0,.43-.41c-.19-.25-.46-.15-.69-.15A.23.23,0,0,0,104.69,18Z"/><path class="ec358195-8646-4caf-af72-3021aea6434e" d="M104.53,6.16c.24,0,.5.11.73-.08,0-.23-.23-.28-.32-.43s-.07-.09-.11-.09-.25,0-.29,0a.76.76,0,0,0-.16.38C104.38,6,104.48,6.17,104.53,6.16Z"/><path class="ec358195-8646-4caf-af72-3021aea6434e" d="M136.29,24.55c.16-.16.4-.26.44-.52-.23-.19-.49-.07-.73-.08-.05,0-.15.15-.15.22a.76.76,0,0,0,.16.38A.28.28,0,0,0,136.29,24.55Z"/><path class="ec358195-8646-4caf-af72-3021aea6434e" d="M119.93,81.11c.58.37.68-.13,1-.32C120.33,80.42,120.23,80.92,119.93,81.11Z"/><path class="ec358195-8646-4caf-af72-3021aea6434e" d="M138.68,33c-.06-.28-.31-.4-.48-.58a.33.33,0,0,0-.28,0c-.07,0-.17.16-.17.17C138,32.8,138.21,33.1,138.68,33Z"/><path class="ec358195-8646-4caf-af72-3021aea6434e" d="M134,40.65s.07.07.1.11c.15-.31.5-.27.73-.42a.2.2,0,0,0,0-.11c-.12-.14-.7-.15-.81,0S134,40.52,134,40.65Z"/><path class="ec358195-8646-4caf-af72-3021aea6434e" d="M130,69.85c-.07.27-.19.58.1.83a3.35,3.35,0,0,1,.31-.63c.12-.14.13-.26,0-.3S130,69.79,130,69.85Z"/><path class="ec358195-8646-4caf-af72-3021aea6434e" d="M137.29,89l.42-.42-.51-.51C137.08,88.76,137.09,88.76,137.29,89Z"/><path class="ec358195-8646-4caf-af72-3021aea6434e" d="M108,32h-.3a.21.21,0,0,0-.11.1.12.12,0,0,0,0,.1c.24.15.58.12.73.41,0-.08.14-.15.15-.24C108.45,32.1,108.36,32,108,32Z"/><path class="ec358195-8646-4caf-af72-3021aea6434e" d="M81,25.64c-.58-.37-.68.13-1,.32C80.63,26.33,80.73,25.83,81,25.64Z"/><path class="ec358195-8646-4caf-af72-3021aea6434e" d="M100.92,21s-.07-.1-.1-.1a.74.74,0,0,1-.62-.31c-.06.05-.17.09-.18.15a2.14,2.14,0,0,0,0,.44c.25,0,.5,0,.74,0C100.81,21.12,100.87,21,100.92,21Z"/><path class="ec358195-8646-4caf-af72-3021aea6434e" d="M80.07,92.79a.26.26,0,0,0-.31.24c0,.25.08.41.31.38a.94.94,0,0,0,.3-.16C80.42,92.93,80.3,92.81,80.07,92.79Z"/><path class="ec358195-8646-4caf-af72-3021aea6434e" d="M81.94,93.41a.94.94,0,0,0,.3-.16c.05-.32-.07-.44-.3-.46a.26.26,0,0,0-.31.24C81.59,93.28,81.71,93.44,81.94,93.41Z"/><path class="ec358195-8646-4caf-af72-3021aea6434e" d="M64.87,95c-.23-.06-.36.07-.38.31a.25.25,0,0,0,.24.3c.24,0,.38-.07.38-.39C65.06,95.15,65,95,64.87,95Z"/><path class="ec358195-8646-4caf-af72-3021aea6434e" d="M89,97.14l-.49.48c.19.13.28.38.53.41A.87.87,0,0,0,89,97.14Z"/><path class="ec358195-8646-4caf-af72-3021aea6434e" d="M49.85,81a.73.73,0,0,0-.79.32.81.81,0,0,0-.07.22c.09,0,.2.1.27.07A.86.86,0,0,0,49.85,81Z"/><path class="ec358195-8646-4caf-af72-3021aea6434e" d="M115.9,34.07c-.17-.14-.27-.38-.48-.42l-.47.41A.69.69,0,0,0,115.9,34.07Z"/><path class="ec358195-8646-4caf-af72-3021aea6434e" d="M27.19,78.46c-.32,0-.44.14-.4.38a.27.27,0,0,0,.31.25c.23,0,.37-.15.3-.39S27.24,78.51,27.19,78.46Z"/><path class="ec358195-8646-4caf-af72-3021aea6434e" d="M44.33,78.77c-.32,0-.45.14-.4.39a.26.26,0,0,0,.31.24c.23,0,.37-.15.3-.39S44.38,78.82,44.33,78.77Z"/><path class="ec358195-8646-4caf-af72-3021aea6434e" d="M53.2,80.94c.24,0,.5.11.7-.15a3.26,3.26,0,0,1-.62-.31c-.14-.11-.22-.14-.31,0s0,.1,0,.15A.23.23,0,0,0,53.2,80.94Z"/><path class="ec358195-8646-4caf-af72-3021aea6434e" d="M105.82,100.65a.5.5,0,0,0-.4,0c-.15,0-.14.12,0,.2a.5.5,0,0,1,.22.52s.13.08.2.1.09-.07.1-.11,0-.2,0-.41C105.92,100.91,105.91,100.72,105.82,100.65Z"/><path class="ec358195-8646-4caf-af72-3021aea6434e" d="M61.49,44.8c.1,0,.27-.1.08-.27a1.41,1.41,0,0,1-.19-.34c-.11.06-.26.11-.3.2a1,1,0,0,0,0,.42A1.53,1.53,0,0,0,61.49,44.8Z"/><path class="ec358195-8646-4caf-af72-3021aea6434e" d="M114.92,12c0-.14,0-.32,0-.4s-.26-.09-.4-.1-.11.16-.09.2a5.19,5.19,0,0,0,.37.45C114.86,12.05,114.92,12,114.92,12Z"/><path class="ec358195-8646-4caf-af72-3021aea6434e" d="M53.59,83.76c.66,0,.66,0,.5-.59A.83.83,0,0,0,53.59,83.76Z"/><path class="ec358195-8646-4caf-af72-3021aea6434e" d="M85.36,6.87a1.6,1.6,0,0,0-.12-.42c-.17.18-.32.31-.44.46s.06.17.12.19C85.14,7.18,85.36,7.07,85.36,6.87Z"/><path class="ec358195-8646-4caf-af72-3021aea6434e" d="M54,84.39a.49.49,0,0,0-.39.1.35.35,0,0,0,.09.51l.1-.1.21-.21C54.2,84.58,54.2,84.44,54,84.39Z"/><path class="ec358195-8646-4caf-af72-3021aea6434e" d="M89.21,2.37s.2-.06.2-.09,0-.32-.1-.4a.33.33,0,0,0-.5.07.44.44,0,0,0,.08.11A1.87,1.87,0,0,0,89.21,2.37Z"/><path class="ec358195-8646-4caf-af72-3021aea6434e" d="M51.25,51a.66.66,0,0,0,0,.94A.66.66,0,0,0,51.25,51Z"/><path class="ec358195-8646-4caf-af72-3021aea6434e" d="M61.23,35.14a.44.44,0,0,0,.39-.1.35.35,0,0,0-.08-.51l-.11.1a2.08,2.08,0,0,1-.21.21C61.07,35,61.07,35.09,61.23,35.14Z"/><path class="ec358195-8646-4caf-af72-3021aea6434e" d="M84.3,95.59a.3.3,0,0,0,.44-.23,1.6,1.6,0,0,0-.12-.42c-.17.18-.32.31-.45.46A.31.31,0,0,0,84.3,95.59Z"/><path class="ec358195-8646-4caf-af72-3021aea6434e" d="M87,95.56a.82.82,0,0,0,.51-.59C86.89,95,86.89,95,87,95.56Z"/><path class="ec358195-8646-4caf-af72-3021aea6434e" d="M90.55,95.32a.86.86,0,0,0-.51.59C90.7,95.88,90.7,95.88,90.55,95.32Z"/><path class="ec358195-8646-4caf-af72-3021aea6434e" d="M80.94,96.44a2.33,2.33,0,0,0,.31-.32s-.06-.2-.09-.2-.32,0-.4.1a.33.33,0,0,0,.08.5Z"/><path class="ec358195-8646-4caf-af72-3021aea6434e" d="M138.36,33.43s.11.14.19.16c.25,0,.39-.05.42-.33,0-.06-.1-.18-.18-.29s-.09,0-.14,0C138.68,33.21,138.44,33.27,138.36,33.43Z"/><path class="ec358195-8646-4caf-af72-3021aea6434e" d="M86.93,96.74c-.06-.06-.15-.19-.17-.19s-.22.33-.46.29c0,0,0,.13,0,.14a.88.88,0,0,0,.35.17C86.87,97.16,87,97,86.93,96.74Z"/><path class="ec358195-8646-4caf-af72-3021aea6434e" d="M90.21,97.17s-.13.16-.12.18.28.29.42.43c0,0,.1-.07.1-.11s.06-.31,0-.39S90.35,97.18,90.21,97.17Z"/><path class="ec358195-8646-4caf-af72-3021aea6434e" d="M19.47,69.1s.11-.16.09-.19a4,4,0,0,0-.37-.45c-.08.08-.14.11-.15.15s0,.31,0,.39S19.33,69.09,19.47,69.1Z"/><path class="ec358195-8646-4caf-af72-3021aea6434e" d="M114.23,21.69a3.23,3.23,0,0,0,.44-.39c-.06-.06-.09-.12-.13-.12s-.31-.05-.39,0-.1.25-.11.39S114.21,21.71,114.23,21.69Z"/><path class="ec358195-8646-4caf-af72-3021aea6434e" d="M136.72,32.24c0-.07-.07-.19-.11-.2a4.14,4.14,0,0,0-.61,0s-.11.08-.1.1.06.18.12.2a1,1,0,0,0,.3,0,1.51,1.51,0,0,0,.3,0S136.73,32.26,136.72,32.24Z"/><path class="ec358195-8646-4caf-af72-3021aea6434e" d="M95.2,98.72s-.14.17-.12.19.27.29.41.43c0,0,.1-.07.1-.11s.06-.31,0-.4A.67.67,0,0,0,95.2,98.72Z"/><path class="ec358195-8646-4caf-af72-3021aea6434e" d="M48.33,87.61c0,.14,0,.32,0,.4s.26.09.4.1.11-.16.09-.2a5.19,5.19,0,0,0-.37-.45C48.4,87.54,48.33,87.58,48.33,87.61Z"/><path class="ec358195-8646-4caf-af72-3021aea6434e" d="M104.7,21.61a.42.42,0,0,0,.1.39.33.33,0,0,0,.5-.09l-.09-.1L105,21.6C104.88,21.45,104.75,21.45,104.7,21.61Z"/><path class="ec358195-8646-4caf-af72-3021aea6434e" d="M112.22,22a5.36,5.36,0,0,0,.4.43s.11-.08.11-.11.06-.32,0-.4-.25-.1-.39-.11S112.2,21.93,112.22,22Z"/><path class="ec358195-8646-4caf-af72-3021aea6434e" d="M47.47,79.35c.13,0,.31.05.39,0s.1-.26.11-.39-.17-.13-.19-.11a5.56,5.56,0,0,0-.44.39C47.4,79.28,47.43,79.34,47.47,79.35Z"/><path class="ec358195-8646-4caf-af72-3021aea6434e" d="M46.78,81.06a1.31,1.31,0,0,0-.2.21.81.81,0,0,0-.1.21.8.8,0,0,0,.26.09.36.36,0,0,0,.25-.1.36.36,0,0,0-.1-.51Z"/><path class="ec358195-8646-4caf-af72-3021aea6434e" d="M52.85,81.3a.86.86,0,0,0-.51.59C53,81.86,53,81.86,52.85,81.3Z"/><path class="ec358195-8646-4caf-af72-3021aea6434e" d="M43.3,69.11c0-.66,0-.66-.58-.5A.79.79,0,0,0,43.3,69.11Z"/><path class="ec358195-8646-4caf-af72-3021aea6434e" d="M43,82.13a1.44,1.44,0,0,0,.12.41,6,6,0,0,0,.44-.46s-.06-.16-.12-.18C43.22,81.82,43,81.93,43,82.13Z"/><path class="ec358195-8646-4caf-af72-3021aea6434e" d="M116.21,31.88a.94.94,0,0,0-.1-.1,2.08,2.08,0,0,0-.21-.21.81.81,0,0,0-.21-.1.89.89,0,0,0-.09.26.34.34,0,0,0,.1.25A.36.36,0,0,0,116.21,31.88Z"/><path class="ec358195-8646-4caf-af72-3021aea6434e" d="M49.7,82.81a.44.44,0,0,0,.39-.1.33.33,0,0,0-.08-.5l-.11.09a2.08,2.08,0,0,1-.21.21C49.54,82.62,49.54,82.76,49.7,82.81Z"/><path class="ec358195-8646-4caf-af72-3021aea6434e" d="M112.49,17.68c0,.1.11.2.17.31,0-.08.08-.16.13-.24s0-.11,0-.14-.1-.2-.16-.21C112.33,17.35,112.49,17.59,112.49,17.68Z"/><path class="ec358195-8646-4caf-af72-3021aea6434e" d="M114.67,23.86a1.53,1.53,0,0,0,.14.39l.18-.35-.18-.28C114.76,23.7,114.66,23.79,114.67,23.86Z"/><path class="ec358195-8646-4caf-af72-3021aea6434e" d="M118.82,29.48c.05,0,.15-.14.22-.2s-.09-.23-.13-.31a.12.12,0,0,0-.1,0C118.65,29.09,118.65,29.43,118.82,29.48Z"/><path class="ec358195-8646-4caf-af72-3021aea6434e" d="M106.93,31.21c0,.05.14.16.2.22l.31-.13a.12.12,0,0,0,0-.1C107.31,31,107,31,106.93,31.21Z"/><path class="ec358195-8646-4caf-af72-3021aea6434e" d="M75.59,32.65a.87.87,0,0,0,.28,0q.22.08.15-.15a.24.24,0,0,0-.1-.1.58.58,0,0,0-.26-.06.71.71,0,0,0-.24.13C75.48,32.54,75.52,32.63,75.59,32.65Z"/><path class="ec358195-8646-4caf-af72-3021aea6434e" d="M117.57,35.4c.05,0,.16-.14.22-.2a2.65,2.65,0,0,0-.13-.31.12.12,0,0,0-.1,0C117.4,35,117.4,35.35,117.57,35.4Z"/><path class="ec358195-8646-4caf-af72-3021aea6434e" d="M140.44,37a.68.68,0,0,0,.28,0l.11-.11s-.07-.08-.11-.1a.55.55,0,0,0-.28,0,.62.62,0,0,0-.23.14A.54.54,0,0,0,140.44,37Z"/><path class="ec358195-8646-4caf-af72-3021aea6434e" d="M140.94,39.45c.05,0,.16-.14.22-.2a2.65,2.65,0,0,0-.13-.31.12.12,0,0,0-.1,0C140.77,39.06,140.77,39.4,140.94,39.45Z"/><path class="ec358195-8646-4caf-af72-3021aea6434e" d="M46.11,49a1.56,1.56,0,0,0-.39-.15c-.07,0-.16.09-.23.15s.16.15.23.14A1.53,1.53,0,0,0,46.11,49Z"/><path class="ec358195-8646-4caf-af72-3021aea6434e" d="M62.41,49.42a.12.12,0,0,0,.1,0,1.78,1.78,0,0,0,.13-.3c-.06-.07-.17-.22-.22-.21S62.25,49.31,62.41,49.42Z"/><path class="ec358195-8646-4caf-af72-3021aea6434e" d="M46.81,53.23c-.21,0-.41,0-.39.3H47A.23.23,0,0,0,46.81,53.23Z"/><path class="ec358195-8646-4caf-af72-3021aea6434e" d="M35.15,61.22s0-.08,0-.11a.34.34,0,0,0-.51,0,.11.11,0,0,0,0,.1A.34.34,0,0,0,35.15,61.22Z"/><path class="ec358195-8646-4caf-af72-3021aea6434e" d="M136.8,61.76c.06.07.1.16.17.18a.92.92,0,0,0,.29,0c.14,0,.19,0,.14-.15a.22.22,0,0,0-.09-.1.66.66,0,0,0-.27-.06A.9.9,0,0,0,136.8,61.76Z"/><path class="ec358195-8646-4caf-af72-3021aea6434e" d="M137.76,68.29a.12.12,0,0,0,0,.1.34.34,0,0,0,.52,0s0-.08,0-.1A.34.34,0,0,0,137.76,68.29Z"/><path class="ec358195-8646-4caf-af72-3021aea6434e" d="M135.28,69.63c.06.16.39.16.5,0s0-.1,0-.1a3,3,0,0,0-.3-.14C135.42,69.47,135.27,69.57,135.28,69.63Z"/><path class="ec358195-8646-4caf-af72-3021aea6434e" d="M42.92,73.17c-.08,0-.16.1-.24.15.08.05.16.15.24.14a1.34,1.34,0,0,0,.38-.14A1.77,1.77,0,0,0,42.92,73.17Z"/><path class="ec358195-8646-4caf-af72-3021aea6434e" d="M44.49,77.74s0-.1,0-.1a2.44,2.44,0,0,0-.31-.14c-.06.07-.22.18-.2.23S44.38,77.89,44.49,77.74Z"/><path class="ec358195-8646-4caf-af72-3021aea6434e" d="M28.09,78s0,.07,0,.1a.34.34,0,0,0,.51,0s0-.08,0-.1A.33.33,0,0,0,28.09,78Z"/><path class="ec358195-8646-4caf-af72-3021aea6434e" d="M44.87,78.7a2,2,0,0,0,.15.38s.09-.06.1-.1a1.37,1.37,0,0,0,.05-.28L45,78.46C45,78.54,44.86,78.62,44.87,78.7Z"/><path class="ec358195-8646-4caf-af72-3021aea6434e" d="M118.35,78.67s0-.08,0-.11a.35.35,0,0,0-.52,0,.12.12,0,0,0,0,.1A.35.35,0,0,0,118.35,78.67Z"/><path class="ec358195-8646-4caf-af72-3021aea6434e" d="M116.94,81.32c-.16.12-.16.45,0,.5s.15-.14.22-.2-.09-.22-.13-.3S117,81.31,116.94,81.32Z"/><path class="ec358195-8646-4caf-af72-3021aea6434e" d="M118.19,81.94a.34.34,0,0,0,0,.51s.07,0,.11,0a.34.34,0,0,0,0-.51A.11.11,0,0,0,118.19,81.94Z"/><path class="ec358195-8646-4caf-af72-3021aea6434e" d="M54.52,82.66a.24.24,0,0,0,.1.1c.21.11.46.07.5-.07s0-.09,0-.09-.27,0-.4-.09S54.47,82.51,54.52,82.66Z"/><path class="ec358195-8646-4caf-af72-3021aea6434e" d="M48,83.29s-.07-.09-.11-.1a.56.56,0,0,0-.28,0,1.05,1.05,0,0,0-.24.15,1.05,1.05,0,0,0,.24.15.9.9,0,0,0,.28,0Z"/><path class="ec358195-8646-4caf-af72-3021aea6434e" d="M115.65,83.23a.14.14,0,0,0,0,.11.34.34,0,0,0,.51,0s0-.07,0-.11A.34.34,0,0,0,115.65,83.23Z"/><path class="ec358195-8646-4caf-af72-3021aea6434e" d="M121.26,84.79a.14.14,0,0,0,0,.11.33.33,0,0,0,.51,0s0-.07,0-.1A.34.34,0,0,0,121.26,84.79Z"/><path class="ec358195-8646-4caf-af72-3021aea6434e" d="M47.78,85.07c-.17.05-.17.38,0,.5a.12.12,0,0,0,.1,0l.13-.31C47.93,85.21,47.83,85.05,47.78,85.07Z"/><path class="ec358195-8646-4caf-af72-3021aea6434e" d="M51.78,87a.11.11,0,0,0,0,.11.33.33,0,0,0,.51,0s0-.06,0-.1A.34.34,0,0,0,51.78,87Z"/><path class="ec358195-8646-4caf-af72-3021aea6434e" d="M49.82,90.89l.18.35a2.08,2.08,0,0,0,.15-.39c0-.07-.1-.16-.15-.24Z"/><path class="ec358195-8646-4caf-af72-3021aea6434e" d="M82.2,91.75s0-.08,0-.1a.34.34,0,0,0-.51,0,.14.14,0,0,0,0,.11A.34.34,0,0,0,82.2,91.75Z"/><path class="ec358195-8646-4caf-af72-3021aea6434e" d="M64.49,92.34a.33.33,0,0,0-.09-.11.65.65,0,0,0-.27,0,.9.9,0,0,0-.24.12c.06.06.1.15.17.17a.7.7,0,0,0,.29,0C64.49,92.53,64.54,92.48,64.49,92.34Z"/><path class="ec358195-8646-4caf-af72-3021aea6434e" d="M82.63,92.68c.05.17.38.17.5,0s0-.09,0-.1l-.3-.13C82.77,92.53,82.61,92.63,82.63,92.68Z"/><path class="ec358195-8646-4caf-af72-3021aea6434e" d="M92.82,96.71s0-.09,0-.09-.27-.05-.4-.09-.2,0-.15.15a.24.24,0,0,0,.1.1C92.53,96.89,92.78,96.85,92.82,96.71Z"/><path class="ec358195-8646-4caf-af72-3021aea6434e" d="M91.29,97.62c.08.06.16.15.23.15a2.21,2.21,0,0,0,.53-.15,2.62,2.62,0,0,0-.53-.14C91.45,97.47,91.37,97.57,91.29,97.62Z"/><path class="ec358195-8646-4caf-af72-3021aea6434e" d="M92.64,100a.34.34,0,0,0,0,.51s.07,0,.11,0a.33.33,0,0,0,0-.51A.11.11,0,0,0,92.64,100Z"/><path class="ec358195-8646-4caf-af72-3021aea6434e" d="M87.38,100.58c-.14,0-.2,0-.14.15a.22.22,0,0,0,.09.1c.22.11.47.07.5-.06s0-.1,0-.1S87.51,100.62,87.38,100.58Z"/><path class="ec358195-8646-4caf-af72-3021aea6434e" d="M115.53,15.73a.12.12,0,0,0,0-.1l-.3-.13c-.07.07-.22.17-.21.22S115.42,15.89,115.53,15.73Z"/><path class="ec358195-8646-4caf-af72-3021aea6434e" d="M91.11,10.5s.12-.09.18-.14v-.08l.47-.35c.12.1.22.25.35.28a.45.45,0,0,0,.39-.13c0-.09,0-.38-.06-.39a3.75,3.75,0,0,1-.77-.4c-.16-.09-.38.09-.38.32s0,.39,0,.64c0,0,0,0,0,0a.15.15,0,0,0-.13,0C91.05,10.3,90.92,10.39,91.11,10.5Z"/><path class="ec358195-8646-4caf-af72-3021aea6434e" d="M90,10.64s-.06-.07-.09-.1l-.12.2.12.11A1,1,0,0,0,90,10.64Z"/><path class="ec358195-8646-4caf-af72-3021aea6434e" d="M131.27,40.7a.81.81,0,0,0,.21-.1l-.11-.11-.2.11S131.25,40.71,131.27,40.7Z"/><path class="ec358195-8646-4caf-af72-3021aea6434e" d="M90.77,11.41a.67.67,0,0,0,.21-.1s-.08-.1-.11-.09a1,1,0,0,0-.21.09S90.74,11.42,90.77,11.41Z"/><path class="ec358195-8646-4caf-af72-3021aea6434e" d="M136.93,41.38l.11-.2-.11-.11a1,1,0,0,0-.09.21S136.9,41.35,136.93,41.38Z"/><path class="ec358195-8646-4caf-af72-3021aea6434e" d="M138.13,41.13s-.07.06-.11.1l.21.11.11-.11A1,1,0,0,0,138.13,41.13Z"/><path class="ec358195-8646-4caf-af72-3021aea6434e" d="M61.56,43.9a1.3,1.3,0,0,0-.18.15.15.15,0,0,0,0,.13.12.12,0,0,0,.13,0,.49.49,0,0,0,.14-.18S61.59,43.94,61.56,43.9Z"/><path class="ec358195-8646-4caf-af72-3021aea6434e" d="M91.39.2A2,2,0,0,0,91.6.1S91.52,0,91.5,0a.81.81,0,0,0-.21.1S91.36.2,91.39.2Z"/><path class="ec358195-8646-4caf-af72-3021aea6434e" d="M136.21,49a1.36,1.36,0,0,0,.1.21s.1-.07.1-.1a1,1,0,0,0-.1-.21S136.21,48.94,136.21,49Z"/><path class="ec358195-8646-4caf-af72-3021aea6434e" d="M136.53,51.77a1,1,0,0,0,.09.21s.11-.08.1-.11a1,1,0,0,0-.1-.21S136.52,51.74,136.53,51.77Z"/><path class="ec358195-8646-4caf-af72-3021aea6434e" d="M45.17,53.53a.15.15,0,0,0,0-.13c-.07-.1-.16-.23-.27,0s.09.12.13.18S45.15,53.55,45.17,53.53Z"/><path class="ec358195-8646-4caf-af72-3021aea6434e" d="M59.06,53.54c-.1.07-.23.16,0,.27,0,0,.11-.09.17-.14s0-.11,0-.13A.15.15,0,0,0,59.06,53.54Z"/><path class="ec358195-8646-4caf-af72-3021aea6434e" d="M89.52,6.12a2,2,0,0,0,.21-.1l-.11-.11-.2.11S89.49,6.12,89.52,6.12Z"/><path class="ec358195-8646-4caf-af72-3021aea6434e" d="M53.12,55.72s-.1.07-.1.1a1,1,0,0,0,.1.21l.11-.11Z"/><path class="ec358195-8646-4caf-af72-3021aea6434e" d="M39.1,61l.11-.2-.11-.11a1,1,0,0,0-.1.21S39.06,61,39.1,61Z"/><path class="ec358195-8646-4caf-af72-3021aea6434e" d="M137.41,62.08a.42.42,0,0,0,.18.14s.06-.06.1-.09a1.3,1.3,0,0,0-.15-.18.15.15,0,0,0-.13,0A.1.1,0,0,0,137.41,62.08Z"/><path class="ec358195-8646-4caf-af72-3021aea6434e" d="M54.83,63.5v-.31c-.08,0-.23.06-.24.11S54.68,63.52,54.83,63.5Z"/><path class="ec358195-8646-4caf-af72-3021aea6434e" d="M135.84,68s.08.11.11.1a1,1,0,0,0,.21-.1s-.08-.1-.11-.09A1,1,0,0,0,135.84,68Z"/><path class="ec358195-8646-4caf-af72-3021aea6434e" d="M43.31,69.25a.62.62,0,0,0,.18.14s.06-.06.1-.1a1.22,1.22,0,0,0-.15-.17.12.12,0,0,0-.13,0A.15.15,0,0,0,43.31,69.25Z"/><path class="ec358195-8646-4caf-af72-3021aea6434e" d="M21.28,69.68a.81.81,0,0,0,.21-.1l-.11-.11-.2.11S21.26,69.68,21.28,69.68Z"/><path class="ec358195-8646-4caf-af72-3021aea6434e" d="M55.18,69.87s.09.12.14.18.11,0,.13,0a.15.15,0,0,0,0-.13C55.38,69.81,55.29,69.68,55.18,69.87Z"/><path class="ec358195-8646-4caf-af72-3021aea6434e" d="M19.68,71.09a.75.75,0,0,0,.1.2s.1-.07.1-.1a2,2,0,0,0-.1-.21S19.68,71.06,19.68,71.09Z"/><path class="ec358195-8646-4caf-af72-3021aea6434e" d="M19,71.3s0,.1,0,.13a.67.67,0,0,0,.19.14s.06-.06.1-.09a1.3,1.3,0,0,0-.15-.18A.15.15,0,0,0,19,71.3Z"/><path class="ec358195-8646-4caf-af72-3021aea6434e" d="M18.22,71.92l.11-.2-.11-.11a1.36,1.36,0,0,0-.1.21S18.19,71.88,18.22,71.92Z"/><path class="ec358195-8646-4caf-af72-3021aea6434e" d="M121.61,71.86a.81.81,0,0,0,.21-.1l-.11-.11-.2.11S121.59,71.86,121.61,71.86Z"/><path class="ec358195-8646-4caf-af72-3021aea6434e" d="M129.09,72.48a.67.67,0,0,0,.21-.1l-.11-.11-.2.11S129.07,72.49,129.09,72.48Z"/><path class="ec358195-8646-4caf-af72-3021aea6434e" d="M125.6,73.61s.09.12.13.18.11,0,.14,0a.15.15,0,0,0,0-.13C125.8,73.55,125.71,73.42,125.6,73.61Z"/><path class="ec358195-8646-4caf-af72-3021aea6434e" d="M21.34,74.1s.1-.08.09-.1a.78.78,0,0,0-.09-.21l-.11.11Z"/><path class="ec358195-8646-4caf-af72-3021aea6434e" d="M33.44,74a.75.75,0,0,0,.2-.1l-.11-.11-.2.11S33.41,74.05,33.44,74Z"/><path class="ec358195-8646-4caf-af72-3021aea6434e" d="M118.74,78.28s.09.12.14.18.11,0,.13,0a.12.12,0,0,0,0-.14C118.94,78.22,118.85,78.09,118.74,78.28Z"/><path class="ec358195-8646-4caf-af72-3021aea6434e" d="M112.84,78.56a1.36,1.36,0,0,0,.1.21s.11-.07.1-.1a1,1,0,0,0-.1-.21S112.84,78.54,112.84,78.56Z"/><path class="ec358195-8646-4caf-af72-3021aea6434e" d="M119,78.6a.67.67,0,0,0,.19.14.48.48,0,0,0,.09-.1.84.84,0,0,0-.15-.18.12.12,0,0,0-.13,0A.15.15,0,0,0,119,78.6Z"/><path class="ec358195-8646-4caf-af72-3021aea6434e" d="M121.76,78.67a1,1,0,0,0-.09-.21s-.11.08-.1.1a.81.81,0,0,0,.1.21S121.77,78.7,121.76,78.67Z"/><path class="ec358195-8646-4caf-af72-3021aea6434e" d="M50.16,80.64c-.22,0-.32.1-.31.31C50.06,81,50.17,80.86,50.16,80.64Z"/><path class="ec358195-8646-4caf-af72-3021aea6434e" d="M119,80.8a1.36,1.36,0,0,0,.21.1s.07-.07.1-.1l-.2-.11Z"/><path class="ec358195-8646-4caf-af72-3021aea6434e" d="M26.79,81.11l.2.11.11-.11a.81.81,0,0,0-.21-.1S26.82,81.07,26.79,81.11Z"/><path class="ec358195-8646-4caf-af72-3021aea6434e" d="M115.84,81.79a.78.78,0,0,0-.09-.21s-.11.07-.1.1a1,1,0,0,0,.1.21S115.85,81.81,115.84,81.79Z"/><path class="ec358195-8646-4caf-af72-3021aea6434e" d="M116.27,81.79s.07.06.1.1l.11-.2-.11-.11A1.36,1.36,0,0,0,116.27,81.79Z"/><path class="ec358195-8646-4caf-af72-3021aea6434e" d="M28,82.36l.2.11.11-.11a.67.67,0,0,0-.21-.1S28.07,82.32,28,82.36Z"/><path class="ec358195-8646-4caf-af72-3021aea6434e" d="M45.49,82.36s.07.1.1.09a1,1,0,0,0,.21-.09l-.11-.12Z"/><path class="ec358195-8646-4caf-af72-3021aea6434e" d="M121.3,82.76a.78.78,0,0,0,.21-.09s-.08-.11-.1-.1a1,1,0,0,0-.21.1S121.28,82.77,121.3,82.76Z"/><path class="ec358195-8646-4caf-af72-3021aea6434e" d="M43.93,83l.2.11.11-.11a1,1,0,0,0-.21-.1S44,82.94,43.93,83Z"/><path class="ec358195-8646-4caf-af72-3021aea6434e" d="M52.85,83.49l-.2.11s.08.11.1.1a.81.81,0,0,0,.21-.1Z"/><path class="ec358195-8646-4caf-af72-3021aea6434e" d="M53.58,83.76a.15.15,0,0,0-.13,0c-.1.07-.23.16,0,.27,0,0,.11-.09.18-.13S53.6,83.79,53.58,83.76Z"/><path class="ec358195-8646-4caf-af72-3021aea6434e" d="M53,84.54a1,1,0,0,0,.21.09s.07-.06.1-.09l-.2-.11Z"/><path class="ec358195-8646-4caf-af72-3021aea6434e" d="M53.17,85.37a2,2,0,0,0-.21.1l.11.11.2-.11S53.2,85.37,53.17,85.37Z"/><path class="ec358195-8646-4caf-af72-3021aea6434e" d="M116.73,85.37a1.24,1.24,0,0,0-.2.1s.07.1.1.1a1,1,0,0,0,.21-.1S116.76,85.37,116.73,85.37Z"/><path class="ec358195-8646-4caf-af72-3021aea6434e" d="M56.7,85.63c-.21,0-.32.09-.31.31C56.61,86,56.71,85.84,56.7,85.63Z"/><path class="ec358195-8646-4caf-af72-3021aea6434e" d="M42.84,85.94s-.11.08-.1.1a1,1,0,0,0,.1.21l.11-.11Z"/><path class="ec358195-8646-4caf-af72-3021aea6434e" d="M117.77,86.74c-.07-.11-.16-.23-.27,0s.08.12.13.18.11,0,.14,0A.15.15,0,0,0,117.77,86.74Z"/><path class="ec358195-8646-4caf-af72-3021aea6434e" d="M43,88.12c-.11-.4.1-.81-.15-1.24-.3,0-.71.12-.93-.28,0,0-.09,0-.14,0a.94.94,0,0,0-.28.06c-.11.06-.08.14,0,.22s.12.38.24.51.34.16.51.24.06.08.06.12c0,.53.33.38.64.4h0a.12.12,0,0,0,0,.14.86.86,0,0,0,.18.14.88.88,0,0,0,.1-.1,1.3,1.3,0,0,0-.15-.18A.2.2,0,0,0,43,88.12Z"/><path class="ec358195-8646-4caf-af72-3021aea6434e" d="M83.19,90.77l-.11-.11-.21.11s.08.1.11.1A2,2,0,0,0,83.19,90.77Z"/><path class="ec358195-8646-4caf-af72-3021aea6434e" d="M73.06,92.79s-.1.08-.1.11a2,2,0,0,0,.1.21l.11-.12Z"/><path class="ec358195-8646-4caf-af72-3021aea6434e" d="M61.69,94.51l.2.11.11-.11a1,1,0,0,0-.21-.1S61.72,94.47,61.69,94.51Z"/><path class="ec358195-8646-4caf-af72-3021aea6434e" d="M87.55,95c.21,0,.32-.09.31-.31C87.64,94.66,87.54,94.76,87.55,95Z"/><path class="ec358195-8646-4caf-af72-3021aea6434e" d="M82.93,95.08a2,2,0,0,0,.1.21l.11-.11L83,95S82.93,95.05,82.93,95.08Z"/><path class="ec358195-8646-4caf-af72-3021aea6434e" d="M83.45,96.33l-.11-.11a2,2,0,0,0-.1.21s.07.07.1.1Z"/><path class="ec358195-8646-4caf-af72-3021aea6434e" d="M87.68,96.53a.7.7,0,0,0,.15-.19.48.48,0,0,0-.1-.09,1.3,1.3,0,0,0-.18.15.09.09,0,0,0,.13.13Z"/><path class="ec358195-8646-4caf-af72-3021aea6434e" d="M86.3,96.71c-.07-.1-.16-.23-.27,0s.09.12.13.18.11,0,.14,0A.15.15,0,0,0,86.3,96.71Z"/><path class="ec358195-8646-4caf-af72-3021aea6434e" d="M87.41,96.54c-.1.07-.23.16,0,.27,0,0,.12-.09.18-.14s0-.11,0-.13A.1.1,0,0,0,87.41,96.54Z"/><path class="ec358195-8646-4caf-af72-3021aea6434e" d="M85.06,97.31s.07.1.1.1a1,1,0,0,0,.21-.1s-.08-.1-.1-.1A1.36,1.36,0,0,0,85.06,97.31Z"/><path class="ec358195-8646-4caf-af72-3021aea6434e" d="M86.3,97.62l.2.11.11-.11a.78.78,0,0,0-.21-.09S86.34,97.59,86.3,97.62Z"/><path class="ec358195-8646-4caf-af72-3021aea6434e" d="M95.65,98.25s.08.1.1.09a.78.78,0,0,0,.21-.09l-.11-.11Z"/><path class="ec358195-8646-4caf-af72-3021aea6434e" d="M90.92,98.61a2,2,0,0,0-.1-.21s-.1.08-.1.1a1.36,1.36,0,0,0,.1.21S90.92,98.64,90.92,98.61Z"/><path class="ec358195-8646-4caf-af72-3021aea6434e" d="M96.27,99.2c-.07-.1-.16-.23-.27,0,0,0,.09.12.13.18s.11,0,.14,0A.15.15,0,0,0,96.27,99.2Z"/><path class="ec358195-8646-4caf-af72-3021aea6434e" d="M90.72,99.44a2,2,0,0,0,.1.21s.1-.08.1-.1a1.36,1.36,0,0,0-.1-.21S90.72,99.41,90.72,99.44Z"/><path class="ec358195-8646-4caf-af72-3021aea6434e" d="M96.28,99.34a.1.1,0,0,0,0,.13.49.49,0,0,0,.18.14s.06-.06.1-.09a1.3,1.3,0,0,0-.15-.18A.15.15,0,0,0,96.28,99.34Z"/><path class="ec358195-8646-4caf-af72-3021aea6434e" d="M80.44,100.06a.81.81,0,0,0,.1.21s.1-.08.1-.1a2,2,0,0,0-.1-.21S80.43,100,80.44,100.06Z"/><path class="ec358195-8646-4caf-af72-3021aea6434e" d="M40.18,101.07c-.07-.1-.16-.23-.27,0,0,0,.09.11.14.18s.11,0,.13,0A.1.1,0,0,0,40.18,101.07Z"/><path class="ec358195-8646-4caf-af72-3021aea6434e" d="M40.19,101.21a.15.15,0,0,0,0,.13.52.52,0,0,0,.19.14s.06-.06.09-.09a.84.84,0,0,0-.15-.18A.15.15,0,0,0,40.19,101.21Z"/><path class="ec358195-8646-4caf-af72-3021aea6434e" d="M113.1,22.22l.2.11.11-.11a2,2,0,0,0-.21-.1S113.13,22.19,113.1,22.22Z"/><path class="ec358195-8646-4caf-af72-3021aea6434e" d="M72.59,26a.81.81,0,0,0-.21-.1s-.06.06-.1.1l.2.11Z"/><path class="ec358195-8646-4caf-af72-3021aea6434e" d="M112.79,27.21l.2.11.11-.11a.67.67,0,0,0-.21-.1S112.82,27.17,112.79,27.21Z"/><path class="ec358195-8646-4caf-af72-3021aea6434e" d="M117.15,28.76s.08.11.1.1a1,1,0,0,0,.21-.1l-.11-.11Z"/><path class="ec358195-8646-4caf-af72-3021aea6434e" d="M121.47,29.12l-.11-.2s-.11.08-.1.1a.67.67,0,0,0,.1.21Z"/><path class="ec358195-8646-4caf-af72-3021aea6434e" d="M105.62,29.7s.08.1.1.1a1.36,1.36,0,0,0,.21-.1s-.07-.11-.1-.1A1,1,0,0,0,105.62,29.7Z"/><path class="ec358195-8646-4caf-af72-3021aea6434e" d="M118.65,30.06a1,1,0,0,0-.1-.21s-.1.08-.1.11a2,2,0,0,0,.1.21S118.65,30.09,118.65,30.06Z"/><path class="ec358195-8646-4caf-af72-3021aea6434e" d="M119.64,30.47a.15.15,0,0,0,0-.13c-.07-.1-.16-.23-.27,0,0,0,.08.12.13.18S119.61,30.5,119.64,30.47Z"/><path class="ec358195-8646-4caf-af72-3021aea6434e" d="M83.49,5.86a.11.11,0,0,0,0-.13c-.07-.11-.16-.24-.27-.05,0,0,.09.12.14.18S83.47,5.88,83.49,5.86Z"/><path class="ec358195-8646-4caf-af72-3021aea6434e" d="M109.05,32.5l.2.11.11-.11a2,2,0,0,0-.21-.1S109.08,32.47,109.05,32.5Z"/><path class="ec358195-8646-4caf-af72-3021aea6434e" d="M115.28,32.5l-.11-.11-.2.11s.07.11.1.1A1,1,0,0,0,115.28,32.5Z"/><path class="ec358195-8646-4caf-af72-3021aea6434e" d="M119,32.81l.2.11.11-.11a1,1,0,0,0-.21-.09S119.05,32.78,119,32.81Z"/><path class="ec358195-8646-4caf-af72-3021aea6434e" d="M136.62,33l.11-.2-.11-.11a.78.78,0,0,0-.09.21S136.59,32.94,136.62,33Z"/><path class="ec358195-8646-4caf-af72-3021aea6434e" d="M76,36.71a.12.12,0,0,0,0,.13.7.7,0,0,0,.19.15.88.88,0,0,0,.1-.1,1.3,1.3,0,0,0-.15-.18A.15.15,0,0,0,76,36.71Z"/><path class="ec358195-8646-4caf-af72-3021aea6434e" d="M72.9,86.08s0-.11,0-.14a.15.15,0,0,0-.13,0c-.1.07-.23.16,0,.27S72.84,86.13,72.9,86.08Z"/><path class="ec358195-8646-4caf-af72-3021aea6434e" d="M97.21,24.87a.26.26,0,0,0,.31-.31C97.3,24.55,97.2,24.65,97.21,24.87Z"/></g></g></svg>