<svg xmlns="http://www.w3.org/2000/svg" viewBox="0 0 199.69 88.88"><defs><style>.edf05185-9247-4e11-b4f3-af6e947cb84c{fill:#1d1d1b;}</style></defs><g id="aaee4676-fce8-4770-8880-12a30d5eeba3" data-name="Layer 2"><g id="ee4454f0-37d8-42de-a48c-062cd90410ec" data-name="Layer 1"><path class="edf05185-9247-4e11-b4f3-af6e947cb84c" d="M172.47,49h-27.6l53.9-49H171V1.78c1.53,0,7.64,1.28,7.64,7.39,0,3.82-2.42,6.87-4.08,8.52L173,19.1,142.62,47l-2.27,2H87.48C69.26,26.69,76.12,2.29,103.34,2.29c16.42,0,28.8,11.37,38.28,22.71H143V0H101.28c-22.13,0-43.5,16.54-43.5,43.91A47.1,47.1,0,0,0,58.05,49H0v4H58.45c4,22.46,24.41,35.88,41.87,35.88,18.83,0,25.15-12.58,26.16-17.88h.62c3,7.68,4.66,12,6.8,17H143V51.7l2.46-2.5L172.35,88h27.34ZM89.78,52H123c0,7.2.12,21.1.12,22.24C108.4,68.11,97.37,60.26,89.78,52Z"/></g></g></svg>