<svg xmlns="http://www.w3.org/2000/svg" viewBox="0 0 81.59 100.04"><defs><style>.ffe4682f-a9c1-4dc4-ace5-7219e2795e86{fill:#1d1d1b;}</style></defs><g id="a784dbdb-0f1f-4feb-b3d7-00a5ea1d8fd7" data-name="Layer 2"><g id="e97234c8-a6d4-4716-98f3-245e86982d3e" data-name="Layer 1"><path class="ffe4682f-a9c1-4dc4-ace5-7219e2795e86" d="M76,20.79A41.38,41.38,0,0,0,60.75,5.59,40.83,40.83,0,0,0,39.91,0H0V55.1H30.21a47.52,47.52,0,0,0,3.64,13.24A55.42,55.42,0,0,0,37,74.78a30.26,30.26,0,0,1-10.54,9.6A28.7,28.7,0,0,1,12.31,88H0V99H12.31A40.2,40.2,0,0,0,30,95,39.94,39.94,0,0,0,44,83.92l.93.93A51.79,51.79,0,0,0,61.68,96.08a51,51,0,0,0,19.91,4V89A40.85,40.85,0,0,1,45,66.24,38.8,38.8,0,0,1,41.4,55.1H81.59V41.68A40.76,40.76,0,0,0,76,20.79ZM41.4,44V26.4H30.54V44H11.1V11.09H39.91A30.6,30.6,0,0,1,70.49,41.68V44Z"/><circle class="ffe4682f-a9c1-4dc4-ace5-7219e2795e86" cx="55.59" cy="31.95" r="5.55" transform="translate(-4.4 9.32) rotate(-9.22)"/></g></g></svg>